<?xml version="1.0" encoding="utf-8"?>
<!-- Generator: Adobe Illustrator 26.3.1, SVG Export Plug-In . SVG Version: 6.00 Build 0)  -->
<svg version="1.1" id="Layer_1" xmlns="http://www.w3.org/2000/svg" xmlns:xlink="http://www.w3.org/1999/xlink" x="0px" y="0px"
	 viewBox="0 0 442 442" style="enable-background:new 0 0 442 442;" xml:space="preserve">
<style type="text/css">
	.st0{fill:#1F2D5E;}
	.st1{fill:#FFFFFF;}
	.st2{fill:#FFDD00;}
	.st3{fill:#E1251B;}
	.st4{fill:none;}
	.st5{clip-path:url(#SVGID_00000111193224072886971020000006122223111261524878_);fill:#FFFFFF;}
	
		.st6{clip-path:url(#SVGID_00000071550740141461781070000006404390931638109573_);fill:url(#SVGID_00000107555945547914211680000006275291033946147493_);}
	.st7{clip-path:url(#SVGID_00000071550740141461781070000006404390931638109573_);}
	.st8{clip-path:url(#SVGID_00000114782850336532411390000010062630334973691797_);fill:#FFFFFF;}
	
		.st9{clip-path:url(#SVGID_00000133496037593116584200000017222463312272322470_);fill:url(#SVGID_00000134949908758582991890000003680861529556488576_);}
	.st10{clip-path:url(#SVGID_00000133496037593116584200000017222463312272322470_);fill:#939598;}
	.st11{clip-path:url(#SVGID_00000133496037593116584200000017222463312272322470_);}
	.st12{clip-path:url(#SVGID_00000122712396365961243210000016066375795922216342_);fill:#FFFFFF;}
	
		.st13{clip-path:url(#SVGID_00000182522436634729244820000016543254068149841318_);fill:url(#SVGID_00000157285075056622029110000015977447071720522425_);}
	.st14{clip-path:url(#SVGID_00000182522436634729244820000016543254068149841318_);fill:#939598;}
	.st15{clip-path:url(#SVGID_00000182522436634729244820000016543254068149841318_);}
	.st16{clip-path:url(#SVGID_00000048488766123276574410000007584047026304754609_);fill:#FFFFFF;}
	
		.st17{clip-path:url(#SVGID_00000092426783795943488260000007578191844524381607_);fill:url(#SVGID_00000067939560808348707260000014118612110207143345_);}
	.st18{clip-path:url(#SVGID_00000092426783795943488260000007578191844524381607_);fill:#939598;}
	.st19{clip-path:url(#SVGID_00000092426783795943488260000007578191844524381607_);}
	.st20{clip-path:url(#SVGID_00000092426783795943488260000007578191844524381607_);fill:#FFFFFF;}
	
		.st21{clip-path:url(#SVGID_00000092426783795943488260000007578191844524381607_);fill:url(#SVGID_00000000911312919286192660000000607977026475947430_);}
	.st22{clip-path:url(#SVGID_00000088841326125243880540000000834836808034514322_);fill:#FFFFFF;}
	.st23{clip-path:url(#SVGID_00000145047827314095823910000005703339977798128810_);}
	.st24{fill:#939598;}
</style>
<g>
	<g>
		<defs>
			<rect id="SVGID_1_" width="442" height="442"/>
		</defs>
		<clipPath id="SVGID_00000119079653011275895790000013759374007577159044_">
			<use xlink:href="#SVGID_1_"  style="overflow:visible;"/>
		</clipPath>
	</g>
	<path class="st0" d="M425.1,9.9H16.8v301.8c0,58.8,47.7,106.5,106.5,106.5h40.6c22.2,0,26.2,0.9,29.9,2.5l27.1,11.4l27.1-11.4
		c3.7-1.6,7.8-2.5,29.9-2.5h40.6c58.8,0,106.5-47.7,106.5-106.5V9.9z"/>
	<path class="st1" d="M360.3,74.7H81.6v237c0,23,18.7,41.7,41.7,41.7H182c15.1,0,17.9,0.6,20.4,1.7l18.5,7.8l18.5-7.8
		c2.6-1.1,5.3-1.7,20.4-1.7h58.7c23,0,41.7-18.7,41.7-41.7V74.7z"/>
	<path class="st2" d="M83.1,311.7c0,22.2,18.1,40.3,40.3,40.3H182c15.1,0,18.1,0.6,21,1.8l17.2,7.3V76.2H83.1V311.7z"/>
	<path class="st3" d="M221.7,76.2V361l17.2-7.3c2.9-1.2,5.9-1.8,21-1.8h58.7c22.2,0,40.3-18.1,40.3-40.3V76.2H221.7z"/>
	<rect class="st4" width="442" height="442"/>
	<g>
		<defs>
			<path id="SVGID_00000125604166266744010620000002468006260557458310_" d="M228.5,23c-3.8,2.5-7.3,5-9,6.7l0,0
				c-15.2,2.3-30.8,5.8-35.6,6.5c-7.1,1.1-14.7,4.3-26.9,2.2c-2.1-0.4-7.1-4.7-16.4-6.9c-6.2-1.5-16.9-3.2-16.1-2.2
				c4.7,5.6,17,14.2,17,15.8c0,4.1-19.1,15.4-15,15.6c12.2,0.4,28.7-8.2,35.7-9c2.6-0.3,5.4-0.5,8.3-0.6c4-0.1,7.4,1.9,10.7,3.8
				c3.5,2.1,6.6,4.2,9.8,3.8c3.7-0.5,12.1-2.9,12.5-3c0.3,0.1,0.5,0.2,0.8,0.2c3.1,1,6.6,2.1,10.7,3.1l0,0c0,0,1.4,3.7,1.4,8.8
				c0,0,13.3-0.5,21.8-5.2l0,0c9.4,0.6,20.3,0.3,33.1-1.6h0c-1.1,1.1-2.1,2.3-2.9,3.5c-1.8,2.7-3.2,7,4.6,2.8
				c8.1-4.3,19.7-13.2,19.7-13.2l0,0c0.4,0,0.9,0.1,1.4,0.1c12.6,0.3,28-8.7,22.1-10.7c-0.8-0.3-2.8-0.2-2.8-0.2l0,0
				c5.2-2.8,7-5.9,5.1-6.2c-0.7-0.1-1.8,0.1-3.1,0.5l0,0c0,0-15.1-10.2-62.9-10.2l0,0c0,0-3.3-6.3-15.6-11.8
				C236.6,15.6,234.4,19.1,228.5,23"/>
		</defs>
		<clipPath id="SVGID_00000143600384732007294110000002441292721473460408_">
			<use xlink:href="#SVGID_00000125604166266744010620000002468006260557458310_"  style="overflow:visible;"/>
		</clipPath>
		
			<rect x="122.5" y="15.6" style="clip-path:url(#SVGID_00000143600384732007294110000002441292721473460408_);fill:#FFFFFF;" width="199.5" height="55.9"/>
	</g>
	<g>
		<defs>
			<rect id="SVGID_00000152245171484920655100000016708320766138484098_" width="442" height="442"/>
		</defs>
		<clipPath id="SVGID_00000045594952553252619430000008218764827262531209_">
			<use xlink:href="#SVGID_00000152245171484920655100000016708320766138484098_"  style="overflow:visible;"/>
		</clipPath>
		
			<linearGradient id="SVGID_00000114041380559265280910000013918659555115556529_" gradientUnits="userSpaceOnUse" x1="-53.4122" y1="623.0052" x2="-52.5939" y2="623.0052" gradientTransform="matrix(238.735 0 0 -238.735 12875.415 148775.4531)">
			<stop  offset="0" style="stop-color:#FFFFFF"/>
			<stop  offset="1" style="stop-color:#000000"/>
		</linearGradient>
		
			<path style="clip-path:url(#SVGID_00000045594952553252619430000008218764827262531209_);fill:url(#SVGID_00000114041380559265280910000013918659555115556529_);" d="
			M318.3,37L318.3,37c-0.1,0-0.2,0-0.3,0c-0.7,0-1.7,0.2-2.8,0.6l0,0c0,0-15.1-10.2-62.9-10.2l0,0c0,0-3.3-6.3-15.6-11.8
			c0,0-2.2,3.6-8.1,7.4c-3.8,2.5-7.3,5-9,6.7l0,0c-15.2,2.3-30.8,5.8-35.6,6.5c-5.4,0.8-11.2,2.9-19,2.9c-2.4,0-5-0.2-7.9-0.7
			c-2.1-0.4-7.1-4.7-16.4-6.9c-4.9-1.1-12.6-2.5-15.2-2.5c-0.6,0-0.9,0.1-0.9,0.2c0,0,0,0.1,0.1,0.1c4.7,5.6,17,14.2,17,15.8
			c0,3.7-15.6,13.3-15.6,15.2c0,0.2,0.2,0.3,0.6,0.3c0.3,0,0.5,0,0.8,0c12.1,0,28-8.3,34.9-9c2.6-0.3,5.4-0.5,8.3-0.6
			c0.1,0,0.1,0,0.2,0c7.8,0,13.7,7.6,19.5,7.6c0.3,0,0.5,0,0.8-0.1c3.7-0.5,12.1-2.9,12.5-3c0.3,0.1,0.5,0.2,0.8,0.2
			c3.1,1,6.6,2.1,10.7,3.1l0,0c0,0,1.4,3.7,1.4,8.8c0,0,13.3-0.5,21.8-5.2l0,0c2.7,0.2,5.6,0.3,8.6,0.3c7.3,0,15.5-0.5,24.5-1.9h0
			c-1.1,1.1-2.1,2.3-2.9,3.5c-0.7,1.1-1.4,2.5-1.4,3.4c0,0.7,0.3,1.1,1.2,1.1c0.9,0,2.4-0.5,4.8-1.7c8.1-4.3,19.7-13.2,19.7-13.2
			l0,0c0.4,0,0.9,0.1,1.4,0.1c0.2,0,0.4,0,0.7,0c10.6,0,22.7-6.2,22.7-9.3c0-0.6-0.4-1-1.3-1.3c-0.6-0.2-2-0.2-2.6-0.2
			c-0.2,0-0.3,0-0.3,0l0,0c3.8-2,5.8-4.3,5.8-5.5C319,37.4,318.8,37.1,318.3,37L318.3,37L318.3,37c0.5,0.1,0.7,0.3,0.7,0.7
			c0,1.2-2,3.4-5.8,5.5l0,0c0,0,0.1,0,0.3,0c0.6,0,1.9,0,2.6,0.2c0.9,0.3,1.3,0.8,1.3,1.3c0,3.1-12.1,9.3-22.7,9.3
			c-0.2,0-0.4,0-0.7,0c-0.5,0-0.9,0-1.4-0.1l0,0c0,0-11.6,8.9-19.7,13.2c-2.3,1.2-3.9,1.7-4.8,1.7c-0.9,0-1.2-0.5-1.2-1.1
			c0-0.9,0.7-2.3,1.4-3.4c0.8-1.2,1.8-2.4,2.9-3.5h0c-9.1,1.3-17.2,1.9-24.5,1.9c-3,0-5.9-0.1-8.6-0.3l0,0
			c-8.4,4.7-21.8,5.2-21.8,5.2c0-5.1-1.4-8.8-1.4-8.8l0,0c-4-1-7.6-2.1-10.7-3.1c-0.3-0.1-0.5-0.2-0.8-0.2c-0.3,0.1-8.8,2.5-12.5,3
			c-0.3,0-0.5,0.1-0.8,0.1c-5.8,0-11.7-7.6-19.5-7.6c-0.1,0-0.1,0-0.2,0c-2.9,0.1-5.7,0.3-8.3,0.6c-6.9,0.8-22.8,9-34.9,9
			c-0.3,0-0.5,0-0.8,0c-0.4,0-0.6-0.1-0.6-0.3c0-1.9,15.6-11.5,15.6-15.2c0-1.5-12.3-10.2-17-15.8c0,0-0.1-0.1-0.1-0.1
			c0-0.1,0.3-0.2,0.9-0.2c2.6,0,10.3,1.3,15.2,2.5c9.3,2.2,14.3,6.6,16.4,6.9c2.9,0.5,5.5,0.7,7.9,0.7c7.9,0,13.6-2.1,19-2.9
			c4.8-0.7,20.4-4.2,35.6-6.5l0,0c1.7-1.7,5.3-4.2,9-6.7c5.9-3.9,8.1-7.4,8.1-7.4c12.3,5.5,15.6,11.8,15.6,11.8h0
			c47.8,0.1,62.9,10.2,62.9,10.2l0,0c1.1-0.3,2.1-0.6,2.8-0.6C318.1,37,318.2,37,318.3,37L318.3,37z"/>
		<path style="clip-path:url(#SVGID_00000045594952553252619430000008218764827262531209_);" d="M294.3,34.6c-1.2,0-2.2,0.3-2.8,0.7
			c-0.6,0.5-0.9,1.1-0.9,1.9c0,0.1,0,0.2,0,0.2c0.1,1.5,1.4,2.6,3.3,2.6h0c0.2,0,0.4,0,0.6,0c1.9-0.2,3.6-1.3,3.6-2.8
			C298.1,35.2,295.4,34.6,294.3,34.6 M294.5,39.3c-0.2,0-0.3,0-0.5,0c-1.7,0-2.6-0.9-2.7-2c0-0.1,0-0.1,0-0.2c0-0.7,0.4-1.3,1.3-1.6
			c-0.4,0.3-0.5,0.8-0.5,1.3c0.1,1.1,1.2,1.7,2.1,1.7c1.1,0,1.9-0.9,1.9-1.8c0-0.7-0.5-1.1-1-1.3c0.4,0.1,0.8,0.2,1.2,0.4
			c0.7,0.3,1.2,0.8,1.2,1.4C297.5,38.1,296.1,39.2,294.5,39.3 M297.2,50.8c0,0-1.5,0-3.3-0.5c-1.8-0.5-3.9-1.4-5-3.2
			c-0.7-1.1-1-2.7-1-4.2c0-2.2,0.5-4.2,0.5-4.2c0-0.2-0.1-0.4-0.2-0.4c-0.2,0-0.4,0.1-0.4,0.2c0,0-0.5,2.1-0.5,4.4
			c0,1.5,0.2,3.2,1.1,4.5c2.6,4,8.9,4,8.9,4h0c0.2,0,0.3-0.1,0.3-0.3C297.5,51,297.4,50.8,297.2,50.8 M318.6,37.8c0-0.6-0.4-1-1-1.1
			c-0.1,0-0.3,0-0.4,0c-0.7,0-1.7,0.2-2.7,0.5c-1.6-1-17.5-10.1-62.7-10.2c-0.6-1.1-4.4-6.7-15.7-11.7c-0.2-0.1-0.3,0-0.4,0.1
			c0,0-0.5,0.9-1.8,2.2c-1.3,1.4-3.3,3.2-6.2,5.1c-0.7,0.5-1.4,0.9-2.1,1.4c0,0,0,0,0,0c-2.9,2-5.5,3.8-6.9,5.2
			c-15.2,2.3-30.7,5.8-35.5,6.5c-5.5,0.8-11.2,2.9-19,2.9c-2.4,0-5-0.2-7.9-0.7c-1.9-0.3-7.1-4.7-16.4-6.9
			c-4.9-1.1-12.6-2.5-15.3-2.5c-0.3,0-0.5,0-0.7,0.1c-0.2,0-0.4,0.1-0.5,0.5c0,0.2,0.1,0.3,0.1,0.3c2.4,2.8,6.7,6.4,10.3,9.4
			c1.8,1.5,3.5,2.9,4.7,4c1.2,1.1,2,2,1.9,2.1c0.1,1.5-3.8,5-7.7,8.1c-1.7,1.3-3.3,2.6-4.7,3.7c0,0,0,0,0,0
			c-0.2,0.2-0.5,0.4-0.7,0.5c-1.5,1.3-2.5,2.1-2.6,2.9c0,0.5,0.5,0.7,0.9,0.7c0.3,0,0.5,0,0.8,0c12.2,0,28.2-8.3,35-9
			c2.6-0.3,5.3-0.5,8.1-0.6c0.1,0,0.2,0,0.3,0c5.6,0,10.3,4.2,14.8,6.3c0,0,0,0,0,0c1.5,0.7,3.1,1.3,4.6,1.3c0.3,0,0.6,0,0.8-0.1
			c3.5-0.5,11.4-2.7,12.4-3c0.2,0.1,0.5,0.1,0.7,0.2c3.1,1,6.6,2.1,10.5,3.1c0.2,0.7,1.3,4.1,1.3,8.5c0,0.1,0,0.2,0.1,0.2
			c0.1,0.1,0.1,0.1,0.2,0.1c0,0,0,0,0,0c0,0,13.3-0.5,21.9-5.2c2.7,0.2,5.5,0.3,8.5,0.3c7.1,0,15-0.5,23.7-1.7
			c-0.8,0.9-1.6,1.9-2.3,2.9c-0.8,1.1-1.5,2.5-1.5,3.6c0,0.3,0.1,0.6,0.2,0.9c0,0,0,0,0,0c0,0,0,0,0,0c0,0,0.1,0.1,0.1,0.1
			c0.3,0.3,0.7,0.4,1.2,0.4c1,0,2.6-0.5,4.9-1.8c7.7-4.1,18.6-12.3,19.7-13.1c0.4,0,0.8,0,1.2,0.1c0.2,0,0.4,0,0.7,0
			c5.3,0,11.1-1.6,15.5-3.5c4.4-2,7.5-4.2,7.6-6.1c0-0.7-0.6-1.3-1.5-1.6c-0.5-0.1-1.1-0.2-1.7-0.2
			C316.9,41.1,318.6,39.1,318.6,37.8 M236,16c6,2.7,9.8,5.6,12.1,7.8c1.2,1.1,2,2.1,2.4,2.7c0.2,0.2,0.3,0.4,0.4,0.5
			c-2.3,0-4.7,0-7.1,0.1c-2.7-3.5-8.7-7.4-10.2-8.4C235,17.4,235.7,16.4,236,16 M233.2,19.2c0.5,0.3,2.1,1.3,3.9,2.7
			c2.1,1.5,4.4,3.4,5.9,5.2c-1.3,0-2.6,0.1-3.9,0.1c-0.8,0-1.7,0.1-2.5,0.1c-1.9-2.7-5.3-4.8-6.4-5.6
			C231.3,20.8,232.3,20,233.2,19.2 M228,23.3c0.6-0.4,1.1-0.7,1.6-1.1c0.8,0.5,4.2,2.6,6.2,5.2c-2,0.1-4.1,0.3-6.3,0.6
			c-1.1-1.8-2.5-3-3.2-3.5C226.8,24,227.4,23.7,228,23.3 M225.7,24.8c0.5,0.4,2,1.5,3.1,3.2c-2.9,0.3-6,0.7-9,1.2
			C221.2,28,223.3,26.4,225.7,24.8 M190.2,58.3c-0.3,0-0.5,0-0.8,0c-1.2,0-2.4-0.3-3.6-0.9c1.2-0.5,3.6-1.4,5.1-1.8
			c0.2,0,0.3-0.2,0.2-0.4c0-0.2-0.2-0.3-0.4-0.2c-2,0.5-5.1,1.8-5.8,2c-1-0.5-2-1.1-3.1-1.7c0.8-0.3,2.4-0.7,3.9-1
			c0.2,0,0.3-0.2,0.3-0.4c0-0.2-0.2-0.3-0.4-0.3c-2,0.4-4,1-4.5,1.2c-2.3-1.4-4.7-2.8-7.3-3.6c8.6,0.1,17.9,1.3,27.7,4.3
			C199.1,56.3,193.1,57.9,190.2,58.3 M223.2,66.6c-3.6,0.6-6.4,0.8-7.3,0.8c0-0.5,0-1-0.1-1.5c1.3-0.1,6.2-0.4,9.3-1.6
			c0.2-0.1,0.2-0.3,0.2-0.4c-0.1-0.2-0.3-0.3-0.4-0.2c-2.9,1.2-7.8,1.5-9.1,1.6c-0.1-0.7-0.1-1.4-0.2-2.1c0.7-0.1,2.2-0.4,3.4-0.7
			c0.2,0,0.3-0.2,0.2-0.4c0-0.2-0.2-0.3-0.4-0.2c-1.2,0.3-2.7,0.6-3.4,0.7c-0.2-1.4-0.5-2.5-0.7-3.1c6,1.5,13.1,2.7,21.4,3.3
			C232.1,64.8,227.2,65.9,223.2,66.6 M272,67c-2.3,1.2-3.8,1.7-4.6,1.7c-0.2,0-0.4,0-0.5-0.1c1.6-1.2,8.7-6.5,15.6-11.3
			c0.1-0.1,0.2-0.3,0.1-0.5c-0.1-0.1-0.3-0.2-0.5-0.1c-6.8,4.8-13.9,10.1-15.6,11.3c0-0.1,0-0.1,0-0.2c0-0.8,0.6-2.2,1.3-3.2
			c2.4-3.6,6.4-7,9.7-9.4c2.8-2,5.2-3.4,5.9-3.8c1.6,1.4,4.1,2.5,7.7,2.9C288.4,56.3,278.9,63.3,272,67 M312.4,43
			C312.4,43,312.4,43,312.4,43c-0.7,0.4-1.4,0.7-2.1,1c-4.5,2-9.4,2.1-10.7,2.1c-0.3,0-0.4,0-0.4,0c-0.2,0-0.3,0.1-0.3,0.3
			c0,0.2,0.1,0.3,0.3,0.3c0,0,0.1,0,0.4,0c1.4,0,6.3-0.2,11-2.2c0.7-0.3,1.4-0.7,2.1-1c0,0,0.1,0,0.2,0c0.6,0,1.9,0,2.5,0.2
			c0.8,0.3,1.1,0.6,1.1,1c0.1,1.2-2.9,3.6-7.2,5.5c-4.3,1.9-10,3.5-15.2,3.5c-0.2,0-0.4,0-0.6,0c-4.9-0.1-7.9-1.3-9.6-3c0,0,0,0,0,0
			c-1.9-1.8-2.4-4.1-2.5-6.2c0-2.6,0.9-4.7,0.8-4.7c0.1-0.2,0-0.4-0.2-0.4c-0.2-0.1-0.4,0-0.4,0.2c0,0-0.9,2.2-0.9,4.9
			c0,2.1,0.5,4.5,2.4,6.4c-1.6,0.9-7.9,4.7-12.6,9.6c-9,1.3-17.1,1.8-24.4,1.8c-19.3,0-32.8-3.8-42.3-6.9
			c-10.9-3.6-21.4-4.9-30.8-4.9c-1.1,0-2.1,0-3.2,0.1c0,0-0.1,0-0.1,0c0,0,0,0,0,0c-2.8,0.1-5.5,0.3-8,0.6c-7,0.8-22.9,9-34.9,9
			c-0.3,0-0.5,0-0.8,0c-0.1,0-0.2,0-0.2,0c0-0.2,1-1.3,2.3-2.4c0.2-0.1,0.4-0.3,0.5-0.4c0.1,0,0.1,0,0.2,0c1.2,0,5.6-0.4,19-4.2
			c0.2,0,0.3-0.2,0.2-0.4c-0.1-0.2-0.2-0.3-0.4-0.2c-11.7,3.3-16.5,4-18.2,4.1c2-1.6,4.5-3.5,6.7-5.4c0.9-0.1,7.7-0.7,10.7-1.2
			c0.2,0,0.3-0.2,0.3-0.4c0-0.2-0.2-0.3-0.4-0.3c-2.4,0.4-7.5,0.9-9.7,1.1c2.2-2,4-3.8,4.3-5.3c1.5-0.1,9-0.4,14.5-0.4
			c2.1,0,3.9,0,5,0.2c0.2,0,0.3-0.1,0.4-0.3c0-0.2-0.1-0.3-0.3-0.4c-1.2-0.1-3-0.2-5.1-0.2c-5.6,0-13.1,0.4-14.6,0.4
			c-0.3-0.6-1-1.3-2-2.2c-1-0.9-2.4-2.1-3.9-3.3c1.3,0.1,4.5,0.7,11.4,3.3c0,0,0.1,0,0.1,0c0.1,0,0.3-0.1,0.3-0.2
			c0.1-0.2,0-0.4-0.2-0.4c-8-3-11.1-3.4-12.1-3.4c-0.1,0-0.2,0-0.3,0c-1.6-1.3-3.4-2.8-5-4.2c1.8,0,7.2,0.6,19.6,5.6
			c0,0,0.1,0,0.1,0c0.1,0,0.3-0.1,0.3-0.2c0.1-0.2,0-0.4-0.2-0.4c-12.7-5.1-18.1-5.6-19.9-5.6c-0.3,0-0.5,0-0.6,0
			c-1.7-1.5-3.2-3-4.4-4.3c0.1,0,0.2,0,0.4,0c2.5,0,10.3,1.3,15.1,2.5c9.2,2.2,14.1,6.5,16.4,6.9c2.9,0.5,5.5,0.7,8,0.7
			c7.9,0,13.7-2.1,19.1-2.9c7.1-1.1,37.6-8.1,55.9-8.7c4.2-0.1,8.1-0.2,11.9-0.2c24.1,0,39.9,2.6,49.7,5.1c4.9,1.3,8.3,2.5,10.5,3.5
			c1.2,0.5,2,0.9,2.5,1.2c-3,1-6.4,2.6-6.4,2.6c-0.2,0.1-0.2,0.3-0.2,0.4c0.1,0.2,0.3,0.2,0.4,0.2c0,0,1.8-0.8,3.9-1.7
			c2.1-0.8,4.6-1.7,5.8-1.7c0.1,0,0.2,0,0.3,0c0.4,0.1,0.4,0.2,0.5,0.4C318,38.7,316.1,40.9,312.4,43"/>
		<path style="clip-path:url(#SVGID_00000045594952553252619430000008218764827262531209_);" d="M294,35.9c-0.3,0-0.5,0-0.6,0.1
			c0.4,0,1.1,0.2,1.1,0.7c0,0.4-0.5,0.8-1.1,0.8c-0.2,0-0.3,0-0.5-0.1c0.3,0.3,0.8,0.5,1.2,0.5c0.7,0,1.3-0.6,1.3-1.1
			C295.4,36.2,294.4,35.9,294,35.9"/>
	</g>
	<g>
		<defs>
			<path id="SVGID_00000032649774945744866260000008903113935045313697_" d="M190.5,370.9L190.5,370.9
				c-47.8,0.1-62.9,10.2-62.9,10.2l0,0c-1.3-0.4-2.4-0.6-3.1-0.5c-1.9,0.3-0.1,3.4,5.1,6.2l0,0c0,0-2,0-2.8,0.2
				c-5.9,2,9.4,11,22.1,10.7c0.5,0,0.9,0,1.4-0.1l0,0c0,0,11.6,8.9,19.7,13.2c7.8,4.2,6.4-0.1,4.6-2.8c-0.8-1.2-1.8-2.4-2.9-3.5l0,0
				c12.8,1.9,23.8,2.2,33.1,1.6l0,0c8.4,4.7,21.8,5.2,21.8,5.2c0-5.1,1.4-8.8,1.4-8.8l0,0c4-1,7.6-2.1,10.7-3.1
				c0.3-0.1,0.5-0.2,0.8-0.2c0.3,0.1,8.8,2.5,12.5,3c3.1,0.4,6.3-1.7,9.8-3.8c3.2-1.9,6.7-3.9,10.7-3.8c2.9,0.1,5.7,0.3,8.3,0.6
				c7.1,0.8,23.5,9.4,35.7,9c4-0.1-15-11.4-15-15.6c0-1.5,12.3-10.2,17-15.8c0.9-1-9.9,0.7-16.1,2.2c-9.3,2.2-14.3,6.6-16.4,6.9
				c-12.2,2.1-19.9-1.1-26.9-2.2c-4.8-0.7-20.4-4.2-35.6-6.5v0c-1.7-1.7-5.3-4.2-9-6.7c-5.9-3.9-8.1-7.4-8.1-7.4
				C193.8,364.6,190.5,370.9,190.5,370.9"/>
		</defs>
		<use xlink:href="#SVGID_00000032649774945744866260000008903113935045313697_"  style="overflow:visible;fill:#FFFFFF;"/>
		<clipPath id="SVGID_00000103251678533144161230000014437840116365198262_">
			<use xlink:href="#SVGID_00000032649774945744866260000008903113935045313697_"  style="overflow:visible;"/>
		</clipPath>
		
			<rect x="120.8" y="359.1" style="clip-path:url(#SVGID_00000103251678533144161230000014437840116365198262_);fill:#FFFFFF;" width="199.5" height="55.9"/>
	</g>
	<g>
		<defs>
			<rect id="SVGID_00000047738392999127530490000015895743981190584971_" width="442" height="442"/>
		</defs>
		<clipPath id="SVGID_00000072269322289789181030000001886270655760628643_">
			<use xlink:href="#SVGID_00000047738392999127530490000015895743981190584971_"  style="overflow:visible;"/>
		</clipPath>
		
			<linearGradient id="SVGID_00000087383508714425036450000004475514757537947560_" gradientUnits="userSpaceOnUse" x1="-53.4121" y1="623.3241" x2="-52.5935" y2="623.3241" gradientTransform="matrix(238.735 0 0 -238.735 12874.665 149195.0781)">
			<stop  offset="0" style="stop-color:#FFFFFF"/>
			<stop  offset="1" style="stop-color:#000000"/>
		</linearGradient>
		
			<path style="clip-path:url(#SVGID_00000072269322289789181030000001886270655760628643_);fill:url(#SVGID_00000087383508714425036450000004475514757537947560_);" d="
			M124.4,380.6L124.4,380.6c0.1,0,0.2,0,0.3,0c0.7,0,1.7,0.2,2.8,0.6l0,0c0,0,15.1-10.2,62.9-10.2h0c0,0,3.3-6.3,15.6-11.8
			c0,0,2.2,3.6,8.1,7.4c3.8,2.5,7.3,5,9,6.7l0,0c15.2,2.3,30.8,5.8,35.6,6.5c5.4,0.8,11.2,2.9,19,2.9c2.4,0,5-0.2,7.9-0.7
			c2.1-0.4,7.1-4.7,16.4-6.9c4.9-1.1,12.6-2.5,15.2-2.5c0.6,0,0.9,0.1,0.9,0.2c0,0,0,0.1-0.1,0.1c-4.7,5.6-17,14.2-17,15.8
			c0,3.7,15.6,13.3,15.6,15.2c0,0.2-0.2,0.3-0.6,0.3c-0.3,0-0.5,0-0.8,0c-12.1,0-28-8.3-34.9-9c-2.6-0.3-5.4-0.5-8.3-0.6
			c-0.1,0-0.1,0-0.2,0c-7.8,0-13.7,7.6-19.5,7.6c-0.3,0-0.5,0-0.8,0c-3.7-0.5-12.1-2.9-12.5-3c-0.3,0.1-0.5,0.2-0.8,0.2
			c-3.1,1-6.6,2.1-10.7,3.1l0,0c0,0-1.4,3.7-1.4,8.8c0,0-13.3-0.5-21.8-5.2l0,0c-2.7,0.2-5.6,0.3-8.6,0.3c-7.3,0-15.5-0.5-24.5-1.9
			h0c1.1,1.1,2.1,2.3,2.9,3.5c0.7,1.1,1.4,2.5,1.4,3.4c0,0.7-0.3,1.1-1.2,1.1c-0.9,0-2.4-0.5-4.8-1.7c-8.1-4.3-19.7-13.2-19.7-13.2
			l0,0c-0.4,0-0.9,0.1-1.4,0.1c-0.2,0-0.4,0-0.7,0c-10.6,0-22.7-6.2-22.7-9.3c0-0.6,0.4-1,1.3-1.3c0.6-0.2,2-0.2,2.5-0.2
			c0.2,0,0.3,0,0.3,0l0,0c-3.8-2-5.8-4.3-5.8-5.5C123.7,380.9,123.9,380.6,124.4,380.6L124.4,380.6L124.4,380.6
			c-0.5,0.1-0.7,0.3-0.7,0.7c0,1.2,2,3.4,5.8,5.5l0,0c0,0-0.1,0-0.3,0c-0.6,0-1.9,0-2.5,0.2c-0.9,0.3-1.3,0.8-1.3,1.3
			c0,3.1,12.1,9.3,22.7,9.3c0.2,0,0.4,0,0.7,0c0.5,0,0.9,0,1.4-0.1l0,0c0,0,11.6,8.9,19.7,13.2c2.3,1.2,3.9,1.7,4.8,1.7
			c0.9,0,1.2-0.5,1.2-1.1c0-0.9-0.7-2.3-1.4-3.4c-0.8-1.2-1.8-2.4-2.9-3.5h0c9.1,1.3,17.2,1.9,24.5,1.9c3,0,5.9-0.1,8.6-0.3l0,0
			c8.4,4.7,21.8,5.2,21.8,5.2c0-5.1,1.4-8.8,1.4-8.8l0,0c4-1,7.6-2.1,10.7-3.1c0.3-0.1,0.5-0.2,0.8-0.2c0.3,0.1,8.8,2.5,12.5,3
			c0.3,0,0.5,0,0.8,0c5.8,0,11.7-7.6,19.5-7.6c0.1,0,0.1,0,0.2,0c2.9,0.1,5.7,0.3,8.3,0.6c6.9,0.8,22.8,9,34.9,9c0.3,0,0.5,0,0.8,0
			c0.4,0,0.6-0.1,0.6-0.3c0-1.9-15.6-11.5-15.6-15.2c0-1.5,12.3-10.2,17-15.8c0,0,0.1-0.1,0.1-0.1c0-0.1-0.3-0.2-0.9-0.2
			c-2.6,0-10.3,1.3-15.2,2.5c-9.3,2.2-14.3,6.6-16.4,6.9c-2.9,0.5-5.5,0.7-7.9,0.7c-7.9,0-13.6-2.1-19-2.9
			c-4.8-0.7-20.4-4.2-35.6-6.5l0,0c-1.7-1.7-5.3-4.2-9-6.7c-5.9-3.9-8.1-7.4-8.1-7.4c-12.3,5.5-15.6,11.8-15.6,11.8h0
			c-47.7,0.1-62.9,10.2-62.9,10.2l0,0c-1.1-0.3-2.1-0.6-2.8-0.6C124.7,380.5,124.5,380.5,124.4,380.6L124.4,380.6z"/>
		<path style="clip-path:url(#SVGID_00000072269322289789181030000001886270655760628643_);fill:#939598;" d="M143.8,380.7
			c0,1.5,1.8,2.6,3.6,2.8c0.2,0,0.4,0,0.6,0h0c1.9,0,3.2-1.1,3.3-2.6c0-0.1,0-0.2,0-0.2c0-0.7-0.3-1.4-0.9-1.9
			c-0.6-0.5-1.6-0.7-2.8-0.7C146.6,378.1,143.9,378.7,143.8,380.7 M144.5,380.7c0-0.6,0.5-1.1,1.2-1.4c0.4-0.2,0.8-0.3,1.2-0.4
			c-0.5,0.2-1,0.7-1,1.3c0,0.9,0.8,1.8,1.9,1.8c0.9,0,2-0.6,2.1-1.7c0-0.5-0.1-1-0.5-1.3c0.9,0.3,1.3,1,1.3,1.6c0,0.1,0,0.1,0,0.2
			c-0.1,1.1-1,2-2.7,2c-0.2,0-0.3,0-0.5,0C145.8,382.7,144.4,381.6,144.5,380.7 M144.5,394.7c0,0.2,0.1,0.3,0.3,0.3h0
			c0,0,6.3,0,8.9-4c0.8-1.3,1.1-3,1.1-4.5c0-2.3-0.5-4.4-0.5-4.4c0-0.2-0.2-0.3-0.4-0.2c-0.2,0-0.3,0.2-0.2,0.4c0,0,0.5,2,0.5,4.2
			c0,1.5-0.2,3-1,4.2c-1.1,1.8-3.2,2.7-5,3.2c-1.8,0.5-3.3,0.5-3.3,0.5C144.6,394.4,144.5,394.5,144.5,394.7 M128.3,386.5
			c-0.6,0-1.3,0.1-1.7,0.2c-0.9,0.3-1.5,0.9-1.5,1.6c0.1,1.9,3.2,4.1,7.6,6.1c4.4,2,10.1,3.5,15.5,3.5c0.2,0,0.4,0,0.7,0
			c0.4,0,0.8,0,1.2-0.1c1.1,0.8,12,9,19.7,13.1c2.4,1.3,3.9,1.8,4.9,1.8c0.5,0,0.9-0.1,1.2-0.4c0,0,0.1-0.1,0.1-0.1c0,0,0,0,0,0
			c0,0,0,0,0,0c0.2-0.3,0.2-0.6,0.2-0.9c0-1.1-0.7-2.5-1.5-3.6c-0.7-1-1.4-2-2.3-2.9c8.7,1.2,16.6,1.7,23.7,1.7c3,0,5.8-0.1,8.5-0.3
			c8.6,4.7,21.8,5.2,21.9,5.2h0c0.1,0,0.2,0,0.2-0.1c0.1-0.1,0.1-0.1,0.1-0.2c0-4.4,1-7.7,1.3-8.5c4-1,7.5-2.1,10.5-3.1
			c0.2-0.1,0.5-0.1,0.7-0.2c1,0.3,8.9,2.5,12.4,3c0.3,0,0.6,0.1,0.8,0.1c1.5,0,3.1-0.5,4.6-1.3c0,0,0,0,0,0
			c4.5-2.2,9.2-6.4,14.8-6.3c0.1,0,0.2,0,0.3,0c2.8,0.1,5.5,0.3,8.1,0.6c6.8,0.7,22.7,9,35,9c0.3,0,0.5,0,0.8,0
			c0.4,0,0.9-0.2,0.9-0.7c-0.1-0.8-1.1-1.6-2.6-2.9c-0.2-0.2-0.4-0.4-0.7-0.5c0,0,0,0,0,0c-1.4-1.1-3-2.4-4.7-3.7
			c-3.9-3-7.8-6.5-7.7-8.1c-0.1-0.1,0.7-1,1.9-2.1c1.2-1.1,2.9-2.5,4.7-4c3.7-3,7.9-6.6,10.3-9.4c0.1-0.1,0.1-0.2,0.1-0.3
			c0-0.4-0.3-0.4-0.5-0.5c-0.2,0-0.4-0.1-0.7-0.1c-2.7,0-10.4,1.4-15.3,2.5c-9.3,2.2-14.5,6.6-16.4,6.9c-2.9,0.5-5.5,0.7-7.9,0.7
			c-7.8,0-13.5-2.1-19-2.9c-4.8-0.7-20.3-4.2-35.5-6.5c-1.4-1.4-4-3.3-6.9-5.2c0,0,0,0,0,0c-0.7-0.5-1.4-0.9-2.1-1.4
			c-2.9-1.9-4.9-3.8-6.2-5.1c-1.3-1.4-1.8-2.2-1.8-2.2c-0.1-0.1-0.3-0.2-0.4-0.1c-11.3,5-15.1,10.7-15.7,11.7
			c-45.2,0.1-61.2,9.2-62.7,10.2c-1.1-0.3-2-0.5-2.7-0.5c-0.1,0-0.3,0-0.4,0c-0.6,0.1-1,0.5-1,1.1
			C123.4,382.6,125.1,384.6,128.3,386.5 M208.3,362.2c-1.5,1-7.5,4.9-10.2,8.4c-2.4,0-4.8-0.1-7.1-0.1c0.1-0.2,0.2-0.3,0.4-0.5
			c0.5-0.7,1.3-1.6,2.4-2.7c2.3-2.2,6.1-5.1,12.1-7.8C206.3,359.9,207,360.9,208.3,362.2 M211.9,365.3c-1.2,0.7-4.5,2.9-6.4,5.6
			c-0.9-0.1-1.7-0.1-2.5-0.1c-1.3,0-2.6-0.1-3.9-0.1c1.5-1.8,3.9-3.7,5.9-5.2c1.8-1.3,3.4-2.3,3.9-2.7
			C209.6,363.5,210.7,364.4,211.9,365.3 M215.7,367.9c-0.7,0.5-2.2,1.8-3.2,3.5c-2.2-0.2-4.3-0.4-6.3-0.6c2-2.6,5.4-4.7,6.2-5.2
			c0.5,0.4,1,0.7,1.6,1.1C214.6,367.2,215.2,367.5,215.7,367.9 M222.2,372.7c-3.1-0.5-6.1-0.9-9-1.2c1.1-1.7,2.6-2.8,3.1-3.2
			C218.7,369.9,220.8,371.5,222.2,372.7 M240.4,399.1c9.8-3,19.1-4.2,27.7-4.3c-2.6,0.8-5,2.2-7.3,3.6c-0.6-0.2-2.5-0.8-4.5-1.2
			c-0.2,0-0.3,0.1-0.4,0.3c0,0.2,0.1,0.3,0.3,0.4c1.5,0.3,3.1,0.7,3.9,1c-1.1,0.6-2.1,1.2-3.1,1.7c-0.7-0.3-3.8-1.5-5.8-2
			c-0.2,0-0.4,0.1-0.4,0.2c0,0.2,0.1,0.4,0.2,0.4c1.6,0.4,3.9,1.3,5.1,1.8c-1.2,0.5-2.4,0.9-3.6,0.9c-0.3,0-0.5,0-0.8,0
			C248.9,401.5,242.9,399.8,240.4,399.1 M205.9,406.3c8.4-0.6,15.4-1.8,21.4-3.3c-0.2,0.6-0.5,1.7-0.7,3.1c-0.7-0.1-2.2-0.3-3.4-0.7
			c-0.2,0-0.4,0.1-0.4,0.2c0,0.2,0.1,0.4,0.2,0.4c1.2,0.3,2.8,0.6,3.4,0.7c-0.1,0.6-0.2,1.3-0.2,2.1c-1.3-0.1-6.2-0.4-9.1-1.5
			c-0.2-0.1-0.4,0-0.4,0.2c-0.1,0.2,0,0.4,0.2,0.4c3.1,1.2,8,1.5,9.3,1.6c0,0.5-0.1,1-0.1,1.5c-0.9-0.1-3.8-0.2-7.3-0.8
			C214.8,409.4,209.9,408.3,205.9,406.3 M151,397.9c3.6-0.4,6-1.4,7.7-2.9c0.7,0.4,3,1.8,5.9,3.8c3.3,2.4,7.3,5.7,9.7,9.4
			c0.7,1.1,1.4,2.4,1.3,3.2c0,0.1,0,0.1,0,0.2c-1.6-1.2-8.8-6.5-15.6-11.3c-0.1-0.1-0.4-0.1-0.5,0.1c-0.1,0.1-0.1,0.4,0.1,0.5
			c6.8,4.8,14,10.1,15.6,11.3c-0.1,0-0.3,0.1-0.5,0.1c-0.8,0-2.3-0.5-4.6-1.7C163.1,406.8,153.6,399.8,151,397.9 M124,381.3
			c0-0.3,0.1-0.3,0.5-0.4c0.1,0,0.2,0,0.3,0c1.2,0,3.7,0.8,5.8,1.7c2.1,0.8,3.9,1.7,3.9,1.7c0.2,0.1,0.4,0,0.4-0.2
			c0.1-0.2,0-0.4-0.2-0.4c0,0-3.4-1.6-6.4-2.6c0.5-0.3,1.3-0.7,2.5-1.2c2.2-1,5.6-2.2,10.5-3.5c9.8-2.6,25.6-5.1,49.7-5.1
			c3.8,0,7.7,0.1,11.9,0.2c18.3,0.6,48.8,7.6,55.9,8.7c5.4,0.8,11.1,2.9,19.1,2.9c2.4,0,5.1-0.2,8-0.7c2.3-0.4,7.2-4.8,16.4-6.9
			c4.9-1.1,12.6-2.5,15.1-2.5c0.1,0,0.3,0,0.4,0c-1.1,1.3-2.7,2.8-4.4,4.3c-0.1,0-0.3,0-0.6,0c-1.8,0-7.3,0.6-19.9,5.6
			c-0.2,0.1-0.2,0.3-0.2,0.4c0.1,0.1,0.2,0.2,0.3,0.2c0,0,0.1,0,0.1,0c12.4-4.9,17.8-5.6,19.6-5.6c-1.6,1.4-3.4,2.9-5,4.2
			c-0.1,0-0.2,0-0.3,0c-1.1,0-4.1,0.4-12.1,3.4c-0.2,0.1-0.3,0.2-0.2,0.4c0,0.1,0.2,0.2,0.3,0.2c0,0,0.1,0,0.1,0
			c6.9-2.6,10.1-3.2,11.4-3.3c-1.5,1.2-2.9,2.4-3.9,3.3c-1,1-1.8,1.6-2,2.2c-1.4-0.1-9-0.4-14.6-0.4c-2.1,0-3.9,0-5.1,0.2
			c-0.2,0-0.3,0.2-0.3,0.4c0,0.2,0.2,0.3,0.4,0.3c1.1-0.1,2.9-0.2,5-0.2c5.6,0,13,0.4,14.5,0.4c0.3,1.5,2,3.3,4.3,5.3
			c-2.2-0.2-7.3-0.7-9.7-1.1c-0.2,0-0.3,0.1-0.4,0.3c0,0.2,0.1,0.3,0.3,0.4c2.9,0.5,9.8,1.1,10.7,1.2c2.2,1.9,4.7,3.8,6.7,5.4
			c-1.8-0.1-6.6-0.8-18.2-4.1c-0.2-0.1-0.4,0-0.4,0.2c0,0.2,0.1,0.4,0.2,0.4c13.4,3.8,17.8,4.2,19,4.2c0.1,0,0.2,0,0.2,0
			c0.2,0.1,0.4,0.3,0.5,0.4c1.4,1.1,2.3,2.1,2.3,2.4c0,0-0.1,0-0.2,0c-0.3,0-0.5,0-0.8,0c-12,0-27.8-8.2-34.9-9
			c-2.6-0.3-5.2-0.5-8-0.6c0,0,0,0,0,0c0,0-0.1,0-0.1,0c-1,0-2.1-0.1-3.2-0.1c-9.4,0-19.9,1.3-30.8,4.9c-9.5,3.1-23,6.9-42.3,6.9
			c-7.3,0-15.4-0.5-24.4-1.8c-4.7-4.9-11-8.7-12.6-9.6c1.9-1.9,2.4-4.3,2.4-6.4c0-2.7-0.9-4.9-0.9-4.9c-0.1-0.2-0.3-0.2-0.4-0.2
			c-0.2,0.1-0.2,0.3-0.2,0.4c0,0,0.9,2.1,0.8,4.7c0,2.1-0.5,4.4-2.5,6.2c0,0,0,0,0,0c-1.8,1.6-4.7,2.8-9.6,3c-0.2,0-0.4,0-0.6,0
			c-5.2,0-10.9-1.5-15.2-3.5c-4.3-1.9-7.3-4.4-7.2-5.5c0-0.4,0.2-0.7,1.1-1c0.5-0.2,1.9-0.2,2.4-0.2c0.1,0,0.2,0,0.2,0
			c0.6,0.3,1.3,0.7,2.1,1c4.7,2,9.6,2.2,11,2.2c0.3,0,0.4,0,0.4,0c0.2,0,0.3-0.2,0.3-0.3c0-0.2-0.2-0.3-0.3-0.3c0,0-0.1,0-0.4,0
			c-1.4,0-6.2-0.2-10.7-2.1c-0.8-0.3-1.5-0.7-2.1-1c0,0,0,0,0,0C125.9,384.5,124,382.2,124,381.3"/>
		<path style="clip-path:url(#SVGID_00000072269322289789181030000001886270655760628643_);" d="M148,379.4c0.3,0,0.5,0,0.6,0.1
			c-0.4,0-1.1,0.2-1.1,0.7c0,0.4,0.5,0.8,1.1,0.8c0.2,0,0.3,0,0.5-0.1c-0.3,0.3-0.8,0.5-1.2,0.5c-0.7,0-1.3-0.6-1.3-1.1
			C146.6,379.7,147.6,379.4,148,379.4"/>
	</g>
	<g>
		<defs>
			<path id="SVGID_00000120556067697257325260000000253061949107137169_" d="M44,124.4c-0.1,0.7,0.1,1.8,0.5,3.1l0,0
				c0,0-10.2,15.1-10.2,62.9l0,0c0,0-6.3,3.3-11.8,15.6c0,0,3.6,2.2,7.4,8.1c2.5,3.8,5,7.3,6.7,9l0,0c2.3,15.2,5.8,30.8,6.5,35.6
				c1.1,7.1,4.3,14.7,2.2,26.9c-0.4,2.1-4.7,7.1-6.9,16.4c-1.5,6.2-3.2,16.9-2.2,16.1c5.6-4.7,14.2-17,15.8-17
				c4.1,0,15.4,19.1,15.6,15c0.4-12.2-8.2-28.7-9-35.7c-0.3-2.6-0.5-5.4-0.6-8.3c-0.1-8.2,8.4-14.4,7.6-20.4
				c-0.5-3.7-2.9-12.1-3-12.5c0.1-0.3,0.2-0.5,0.2-0.8c1-3.1,2.1-6.6,3.1-10.7l0,0c0,0,3.7-1.4,8.8-1.4c0,0-0.5-13.3-5.2-21.8l0,0
				c0.6-9.4,0.3-20.3-1.6-33.1v0c1.1,1.1,2.3,2.1,3.5,2.9c2.7,1.8,7,3.2,2.8-4.6c-4.3-8.1-13.2-19.7-13.2-19.7l0,0
				c0-0.4,0.1-0.9,0.1-1.4c0.3-12.6-8.7-27.9-10.7-22.1c-0.3,0.8-0.2,2.8-0.2,2.8v0c-2-3.8-4.3-5.8-5.5-5.8
				C44.3,123.7,44.1,123.9,44,124.4"/>
		</defs>
		<clipPath id="SVGID_00000067205029688201326210000008902881133243884471_">
			<use xlink:href="#SVGID_00000120556067697257325260000000253061949107137169_"  style="overflow:visible;"/>
		</clipPath>
		
			<rect x="22.5" y="120.8" style="clip-path:url(#SVGID_00000067205029688201326210000008902881133243884471_);fill:#FFFFFF;" width="55.9" height="199.5"/>
	</g>
	<g>
		<defs>
			<rect id="SVGID_00000180350301684826750780000014335582465846010763_" width="442" height="442"/>
		</defs>
		<clipPath id="SVGID_00000008851636318787806840000007698022294400129958_">
			<use xlink:href="#SVGID_00000180350301684826750780000014335582465846010763_"  style="overflow:visible;"/>
		</clipPath>
		
			<linearGradient id="SVGID_00000092420009516989741620000009955786052879004348_" gradientUnits="userSpaceOnUse" x1="-52.7867" y1="624.6014" x2="-51.9682" y2="624.6014" gradientTransform="matrix(66.4208 0 0 -66.4208 3528.1306 41707.5234)">
			<stop  offset="0" style="stop-color:#FFFFFF"/>
			<stop  offset="1" style="stop-color:#000000"/>
		</linearGradient>
		
			<path style="clip-path:url(#SVGID_00000008851636318787806840000007698022294400129958_);fill:url(#SVGID_00000092420009516989741620000009955786052879004348_);" d="
			M44,124.4L44,124.4c0,0.1,0,0.2,0,0.3c0,0.7,0.2,1.7,0.6,2.8v0c0,0-10.2,15.1-10.2,62.9v0c0,0-6.3,3.3-11.8,15.6
			c0,0,3.6,2.2,7.4,8.1c2.5,3.8,5,7.3,6.7,9l0,0c2.3,15.2,5.8,30.8,6.5,35.6c0.8,5.4,2.9,11.2,2.9,19c0,2.4-0.2,5-0.7,7.9
			c-0.4,2.1-4.7,7.1-6.9,16.4c-1.1,4.9-2.5,12.6-2.5,15.2c0,0.6,0.1,0.9,0.2,0.9c0,0,0.1,0,0.1-0.1c5.6-4.7,14.2-17,15.8-17
			c3.7,0,13.3,15.6,15.2,15.6c0.2,0,0.3-0.2,0.3-0.6c0-0.3,0-0.5,0-0.8c0-12.1-8.3-28-9-34.9c-0.3-2.6-0.5-5.4-0.6-8.3
			c0-0.1,0-0.1,0-0.2c0-7.8,7.6-13.7,7.6-19.5c0-0.3,0-0.5,0-0.8c-0.5-3.7-2.9-12.1-3-12.5c0.1-0.3,0.2-0.5,0.2-0.8
			c1-3.1,2.1-6.6,3.1-10.7l0,0c0,0,3.7-1.4,8.8-1.4c0,0-0.5-13.3-5.2-21.8l0,0c0.2-2.7,0.3-5.6,0.3-8.6c0-7.3-0.5-15.5-1.9-24.5v0
			c1.1,1.1,2.3,2.1,3.5,2.9c1.1,0.7,2.5,1.4,3.4,1.4c0.7,0,1.1-0.3,1.1-1.2c0-0.9-0.5-2.4-1.7-4.8c-4.3-8.1-13.2-19.7-13.2-19.7l0,0
			c0-0.4,0.1-0.9,0.1-1.4c0-0.2,0-0.4,0-0.7c0-10.6-6.2-22.7-9.3-22.7c-0.6,0-1,0.4-1.3,1.3c-0.2,0.6-0.2,2-0.2,2.6
			c0,0.2,0,0.3,0,0.3v0c-2-3.8-4.3-5.8-5.5-5.8C44.3,123.7,44.1,123.9,44,124.4L44,124.4L44,124.4c0.1-0.5,0.3-0.7,0.8-0.7
			c1.2,0,3.4,2,5.5,5.8v0c0,0,0-0.1,0-0.3c0-0.6,0-1.9,0.2-2.6c0.3-0.9,0.8-1.3,1.3-1.3c3.1,0,9.3,12.1,9.3,22.7c0,0.2,0,0.4,0,0.7
			c0,0.5,0,0.9-0.1,1.4l0,0c0,0,8.9,11.6,13.2,19.7c1.3,2.3,1.7,3.9,1.7,4.8c0,0.9-0.5,1.2-1.1,1.2c-0.9,0-2.3-0.7-3.4-1.4
			c-1.2-0.8-2.4-1.8-3.5-2.9v0c1.3,9.1,1.9,17.2,1.9,24.5c0,3-0.1,5.9-0.3,8.6l0,0c4.7,8.4,5.2,21.8,5.2,21.8
			c-5.1,0-8.8,1.4-8.8,1.4l0,0c-1,4-2.1,7.6-3.1,10.7c-0.1,0.3-0.2,0.5-0.2,0.8c0.1,0.3,2.5,8.8,3,12.5c0,0.3,0,0.5,0,0.8
			c0,5.8-7.6,11.7-7.6,19.5c0,0.1,0,0.1,0,0.2c0.1,2.9,0.3,5.7,0.6,8.3c0.8,6.9,9,22.8,9,34.9c0,0.3,0,0.5,0,0.8
			c0,0.4-0.1,0.6-0.3,0.6c-1.9,0-11.5-15.6-15.2-15.6c-1.5,0-10.2,12.3-15.8,17c0,0-0.1,0.1-0.1,0.1c-0.1,0-0.2-0.3-0.2-0.9
			c0-2.6,1.3-10.3,2.5-15.2c2.2-9.3,6.6-14.3,6.9-16.4c0.5-2.9,0.7-5.5,0.7-7.9c0-7.9-2.1-13.6-2.9-19c-0.7-4.8-4.2-20.4-6.5-35.6
			l0,0c-1.7-1.7-4.2-5.3-6.7-9c-3.9-5.9-7.4-8.1-7.4-8.1c5.5-12.3,11.8-15.6,11.8-15.6v0c0.1-47.8,10.2-62.9,10.2-62.9v0
			c-0.3-1.1-0.6-2.1-0.6-2.8C44,124.7,44,124.5,44,124.4L44,124.4z"/>
		<path style="clip-path:url(#SVGID_00000008851636318787806840000007698022294400129958_);fill:#939598;" d="M41.6,147.7
			c0,1.2,0.3,2.2,0.7,2.8c0.5,0.6,1.1,0.9,1.9,0.9c0.1,0,0.2,0,0.2,0c1.5-0.1,2.6-1.4,2.6-3.3v0c0-0.2,0-0.4,0-0.6
			c-0.2-1.9-1.3-3.6-2.8-3.6C42.1,143.9,41.6,146.6,41.6,147.7 M46.3,147.5c0,0.2,0,0.3,0,0.5c0,1.7-0.9,2.6-2,2.7
			c-0.1,0-0.1,0-0.2,0c-0.7,0-1.3-0.4-1.6-1.3c0.3,0.4,0.8,0.5,1.3,0.5c1.1-0.1,1.7-1.2,1.7-2.1c0-1.1-0.9-1.9-1.8-1.9
			c-0.7,0-1.1,0.5-1.3,1c0.1-0.4,0.2-0.8,0.4-1.2c0.3-0.7,0.8-1.2,1.4-1.2C45.1,144.4,46.2,145.8,46.3,147.5 M57.8,144.8
			c0,0,0,1.5-0.5,3.3c-0.5,1.8-1.4,3.9-3.2,5c-1.1,0.7-2.7,1-4.2,1c-2.2,0-4.2-0.5-4.2-0.5c-0.2,0-0.4,0.1-0.4,0.2
			c0,0.2,0.1,0.4,0.2,0.4c0,0,2.1,0.5,4.4,0.5c1.5,0,3.2-0.2,4.5-1.1c4-2.6,4-8.9,4-8.9v0c0-0.2-0.1-0.3-0.3-0.3
			C57.9,144.5,57.8,144.6,57.8,144.8 M44.8,123.4c-0.6,0-1,0.4-1.1,1c0,0.1,0,0.3,0,0.4c0,0.7,0.2,1.7,0.5,2.7
			c-1,1.6-10.1,17.5-10.2,62.7c-1.1,0.6-6.7,4.4-11.7,15.7c-0.1,0.2,0,0.3,0.1,0.4c0,0,0.9,0.5,2.2,1.8c1.4,1.3,3.2,3.3,5.1,6.2
			c0.5,0.7,0.9,1.4,1.4,2.1c0,0,0,0,0,0c2,2.9,3.8,5.5,5.2,6.9c2.3,15.2,5.8,30.7,6.5,35.5c0.8,5.5,2.9,11.2,2.9,19
			c0,2.4-0.2,5-0.7,7.9c-0.3,1.9-4.7,7.1-6.9,16.4c-1.1,4.9-2.5,12.6-2.5,15.3c0,0.3,0,0.5,0.1,0.7c0,0.2,0.1,0.4,0.5,0.5
			c0.2,0,0.3-0.1,0.3-0.1c2.8-2.4,6.4-6.7,9.4-10.3c1.5-1.8,2.9-3.5,4-4.7c1.1-1.2,2-2,2.1-1.9c1.5-0.1,5,3.8,8.1,7.7
			c1.3,1.7,2.6,3.3,3.7,4.7c0,0,0,0,0,0c0.2,0.2,0.4,0.4,0.5,0.7c1.3,1.5,2.1,2.5,2.9,2.6c0.5,0,0.7-0.5,0.7-0.9c0-0.3,0-0.5,0-0.8
			c0-12.2-8.3-28.2-9-35c-0.3-2.6-0.5-5.3-0.6-8.1c0-0.1,0-0.2,0-0.3c0-5.6,4.2-10.3,6.3-14.8c0,0,0,0,0,0c0.7-1.5,1.3-3.1,1.3-4.6
			c0-0.3,0-0.6-0.1-0.8c-0.5-3.5-2.7-11.4-3-12.4c0.1-0.2,0.1-0.5,0.2-0.7c1-3.1,2.1-6.6,3.1-10.5c0.7-0.2,4.1-1.3,8.5-1.3
			c0.1,0,0.2,0,0.2-0.1c0.1-0.1,0.1-0.1,0.1-0.2v0c0,0-0.5-13.3-5.2-21.9c0.2-2.7,0.3-5.5,0.3-8.5c0-7.1-0.5-15-1.7-23.7
			c0.9,0.8,1.9,1.6,2.9,2.3c1.1,0.8,2.5,1.5,3.6,1.5c0.3,0,0.6-0.1,0.9-0.2c0,0,0,0,0,0c0,0,0,0,0,0c0,0,0.1-0.1,0.1-0.1
			c0.3-0.3,0.4-0.7,0.4-1.2c0-1-0.5-2.6-1.8-4.9c-4.1-7.7-12.3-18.6-13.1-19.7c0-0.4,0-0.8,0.1-1.2c0-0.2,0-0.4,0-0.7
			c0-5.3-1.6-11.1-3.5-15.5c-2-4.4-4.2-7.5-6.1-7.6c-0.7,0-1.3,0.6-1.6,1.5c-0.1,0.5-0.2,1.1-0.2,1.7
			C48,125.1,46.1,123.4,44.8,123.4 M22.9,206c2.7-6,5.6-9.8,7.8-12.1c1.1-1.2,2.1-2,2.7-2.4c0.2-0.2,0.4-0.3,0.5-0.4
			c0,2.3,0,4.7,0.1,7.1c-3.5,2.7-7.4,8.7-8.4,10.2C24.4,207,23.4,206.3,22.9,206 M26.1,208.8c0.3-0.5,1.3-2.1,2.7-3.9
			c1.5-2.1,3.4-4.4,5.2-5.9c0,1.3,0.1,2.6,0.1,3.9c0,0.8,0.1,1.7,0.1,2.5c-2.7,1.9-4.8,5.3-5.6,6.4
			C27.8,210.7,26.9,209.6,26.1,208.8 M30.2,214c-0.4-0.6-0.7-1.1-1.1-1.6c0.5-0.8,2.6-4.2,5.2-6.2c0.1,2,0.3,4.1,0.6,6.3
			c-1.8,1.1-3,2.5-3.5,3.2C31,215.2,30.6,214.6,30.2,214 M31.8,216.3c0.4-0.5,1.5-2,3.2-3.1c0.3,2.9,0.7,6,1.2,9
			C34.9,220.8,33.4,218.7,31.8,216.3 M65.3,251.8c0,0.3,0,0.5,0,0.8c0,1.2-0.3,2.4-0.9,3.6c-0.5-1.2-1.4-3.6-1.8-5.1
			c0-0.2-0.2-0.3-0.4-0.2c-0.2,0-0.3,0.2-0.2,0.4c0.5,2,1.8,5.1,2,5.8c-0.5,1-1.1,2-1.7,3.1c-0.3-0.8-0.7-2.4-1-3.9
			c0-0.2-0.2-0.3-0.4-0.3c-0.2,0-0.3,0.2-0.3,0.4c0.4,2,1,4,1.2,4.5c-1.4,2.3-2.8,4.7-3.6,7.3c0.1-8.6,1.3-17.9,4.3-27.7
			C63.3,242.9,64.9,248.9,65.3,251.8 M73.6,218.8c0.6,3.6,0.8,6.4,0.8,7.3c-0.5,0-1,0-1.5,0.1c-0.1-1.3-0.4-6.2-1.6-9.3
			c-0.1-0.2-0.3-0.2-0.4-0.2c-0.2,0.1-0.3,0.3-0.2,0.4c1.2,2.9,1.5,7.8,1.5,9.1c-0.7,0.1-1.4,0.1-2.1,0.2c-0.1-0.7-0.4-2.2-0.7-3.4
			c0-0.2-0.2-0.3-0.4-0.2c-0.2,0-0.3,0.2-0.2,0.4c0.3,1.2,0.6,2.7,0.7,3.4c-1.4,0.2-2.5,0.5-3.1,0.7c1.5-6,2.7-13.1,3.3-21.4
			C71.7,209.9,72.9,214.8,73.6,218.8 M73.9,170c1.2,2.3,1.7,3.8,1.7,4.6c0,0.2,0,0.4-0.1,0.5c-1.2-1.6-6.5-8.7-11.3-15.6
			c-0.1-0.1-0.3-0.2-0.5-0.1c-0.1,0.1-0.2,0.3-0.1,0.5c4.8,6.8,10.1,13.9,11.3,15.6c-0.1,0-0.1,0-0.2,0c-0.8,0-2.2-0.6-3.2-1.3
			c-3.6-2.4-7-6.4-9.4-9.7c-2-2.8-3.4-5.2-3.8-5.9c1.4-1.6,2.5-4.1,2.9-7.7C63.2,153.6,70.3,163.1,73.9,170 M49.9,129.6
			C49.9,129.6,49.9,129.6,49.9,129.6c0.4,0.7,0.7,1.4,1,2.1c2,4.5,2.1,9.4,2.1,10.7c0,0.3,0,0.4,0,0.4c0,0.2,0.1,0.3,0.3,0.3
			c0.2,0,0.3-0.1,0.3-0.3c0,0,0-0.1,0-0.4c0-1.4-0.2-6.3-2.2-11c-0.3-0.7-0.7-1.4-1-2.1c0,0,0-0.1,0-0.2c0-0.6,0-1.9,0.2-2.4
			c0.3-0.8,0.6-1.1,1-1.1c1.2-0.1,3.6,2.9,5.5,7.2c1.9,4.3,3.5,10,3.5,15.2c0,0.2,0,0.4,0,0.6c-0.1,4.9-1.3,7.9-3,9.6c0,0,0,0,0,0
			c-1.8,1.9-4.1,2.4-6.2,2.5c-2.6,0-4.7-0.9-4.7-0.8c-0.2-0.1-0.4,0-0.4,0.2c-0.1,0.2,0,0.4,0.2,0.4c0,0,2.2,0.9,4.9,0.9
			c2.1,0,4.5-0.5,6.4-2.4c0.9,1.6,4.7,7.9,9.6,12.6c1.3,9,1.8,17.1,1.8,24.4c0,19.3-3.8,32.8-6.9,42.3c-3.6,10.9-4.9,21.4-4.9,30.8
			c0,1.1,0,2.1,0.1,3.2c0,0,0,0.1,0,0.1c0,0,0,0,0,0c0.1,2.8,0.3,5.5,0.6,8c0.8,7,9,22.9,9,34.9c0,0.3,0,0.5,0,0.8
			c0,0.1,0,0.2,0,0.2c-0.2,0-1.3-1-2.4-2.3c-0.1-0.2-0.3-0.4-0.4-0.5c0-0.1,0-0.1,0-0.2c0-1.2-0.4-5.6-4.2-19c0-0.2-0.2-0.3-0.4-0.2
			c-0.2,0-0.3,0.2-0.2,0.4c3.3,11.7,4,16.5,4.1,18.2c-1.6-2-3.5-4.5-5.4-6.7c-0.1-0.9-0.7-7.7-1.2-10.7c0-0.2-0.2-0.3-0.4-0.3
			c-0.2,0-0.3,0.2-0.3,0.4c0.4,2.4,0.9,7.5,1.1,9.7c-2-2.2-3.8-4-5.3-4.3c-0.1-1.5-0.4-9-0.4-14.5c0-2.1,0-3.9,0.2-5
			c0-0.2-0.1-0.3-0.3-0.4c-0.2,0-0.3,0.1-0.4,0.3c-0.1,1.2-0.2,3-0.2,5.1c0,5.6,0.4,13.1,0.4,14.6c-0.6,0.3-1.3,1-2.2,2
			c-0.9,1-2.1,2.4-3.3,3.9c0.1-1.3,0.7-4.5,3.3-11.4c0,0,0-0.1,0-0.1c0-0.1-0.1-0.3-0.2-0.3c-0.2-0.1-0.4,0-0.4,0.2
			c-3,8-3.4,11.1-3.4,12.1c0,0.1,0,0.2,0,0.3c-1.3,1.6-2.8,3.4-4.2,5c0-1.8,0.6-7.2,5.6-19.6c0,0,0-0.1,0-0.1c0-0.1-0.1-0.3-0.2-0.3
			c-0.2-0.1-0.4,0-0.4,0.2c-5.1,12.7-5.6,18.1-5.6,19.9c0,0.3,0,0.5,0,0.6c-1.5,1.7-3,3.2-4.3,4.4c0-0.1,0-0.2,0-0.4
			c0-2.5,1.3-10.3,2.5-15.1c2.2-9.2,6.5-14.1,6.9-16.4c0.5-2.9,0.7-5.5,0.7-8c0-7.9-2.1-13.7-2.9-19.1c-1.1-7.1-8.1-37.6-8.7-55.9
			c-0.1-4.2-0.2-8.1-0.2-11.9c0-24.1,2.6-39.9,5.1-49.7c1.3-4.9,2.5-8.3,3.5-10.5c0.5-1.2,0.9-2,1.2-2.5c1,3,2.6,6.4,2.6,6.4
			c0.1,0.2,0.3,0.2,0.4,0.2c0.2-0.1,0.2-0.3,0.2-0.4c0,0-0.8-1.8-1.7-3.9c-0.8-2.1-1.7-4.6-1.7-5.8c0-0.1,0-0.2,0-0.3
			c0.1-0.4,0.2-0.4,0.4-0.5C45.6,124,47.9,125.9,49.9,129.6"/>
		<path style="clip-path:url(#SVGID_00000008851636318787806840000007698022294400129958_);" d="M42.8,148c0,0.3,0,0.5,0.1,0.6
			c0-0.4,0.2-1.1,0.7-1.1c0.4,0,0.8,0.5,0.8,1.1c0,0.2,0,0.3-0.1,0.5c0.3-0.3,0.5-0.8,0.5-1.2c0-0.7-0.6-1.3-1.1-1.3
			C43.1,146.6,42.8,147.6,42.8,148"/>
	</g>
	<g>
		<defs>
			<path id="SVGID_00000135674056535272189050000009755055774582889363_" d="M405.7,123.8c-5.6,4.7-14.2,17-15.8,17
				c-4.1,0-15.4-19.1-15.6-15c-0.4,12.2,8.2,28.7,9,35.7c0.3,2.6,0.5,5.4,0.6,8.3c0.1,8.2-8.4,14.4-7.6,20.4
				c0.5,3.7,2.9,12.1,3,12.5c-0.1,0.3-0.2,0.5-0.2,0.8c-1,3.1-2.1,6.6-3.1,10.7l0,0c0,0-3.7,1.4-8.8,1.4c0,0,0.5,13.3,5.2,21.8l0,0
				c-0.6,9.4-0.3,20.3,1.6,33.1v0c-1.1-1.1-2.3-2.1-3.5-2.9c-2.7-1.8-7-3.2-2.8,4.6c4.3,8.1,13.2,19.7,13.2,19.7l0,0
				c0,0.4-0.1,0.9-0.1,1.4c-0.3,12.6,8.7,28,10.7,22.1c0.3-0.8,0.2-2.8,0.2-2.8v0c2.8,5.2,5.9,7,6.2,5.1c0.1-0.7-0.1-1.8-0.5-3.1
				l0,0c0,0,10.2-15.1,10.2-62.9l0,0c0,0,6.3-3.3,11.8-15.6c0,0-3.6-2.2-7.4-8.1c-2.5-3.8-5-7.3-6.7-9l0,0
				c-2.3-15.2-5.8-30.8-6.5-35.6c-1.1-7.1-4.3-14.7-2.2-26.9c0.4-2.1,4.7-7.1,6.9-16.4c1.4-6,3.1-16.1,2.3-16.1
				C405.8,123.7,405.7,123.7,405.7,123.8"/>
		</defs>
		<clipPath id="SVGID_00000152230670748544621500000004532604443480953223_">
			<use xlink:href="#SVGID_00000135674056535272189050000009755055774582889363_"  style="overflow:visible;"/>
		</clipPath>
		
			<rect x="363.6" y="121.7" style="clip-path:url(#SVGID_00000152230670748544621500000004532604443480953223_);fill:#FFFFFF;" width="55.9" height="199.5"/>
	</g>
	<g>
		<defs>
			<rect id="SVGID_00000132058098407058553060000005656366493270153376_" width="442" height="442"/>
		</defs>
		<clipPath id="SVGID_00000096743710062408460940000013427287644684788393_">
			<use xlink:href="#SVGID_00000132058098407058553060000005656366493270153376_"  style="overflow:visible;"/>
		</clipPath>
		
			<linearGradient id="SVGID_00000119810409379744324300000004051960561319965351_" gradientUnits="userSpaceOnUse" x1="-53.9354" y1="624.6012" x2="-53.1168" y2="624.6012" gradientTransform="matrix(66.4207 0 0 -66.4207 3947.9961 41707.4414)">
			<stop  offset="0" style="stop-color:#FFFFFF"/>
			<stop  offset="1" style="stop-color:#000000"/>
		</linearGradient>
		
			<path style="clip-path:url(#SVGID_00000096743710062408460940000013427287644684788393_);fill:url(#SVGID_00000119810409379744324300000004051960561319965351_);" d="
			M398,317.5L398,317.5c0-0.1,0-0.2,0-0.3c0-0.7-0.2-1.7-0.6-2.8l0,0c0,0,10.2-15.1,10.2-62.9l0,0c0,0,6.3-3.3,11.8-15.6
			c0,0-3.6-2.2-7.4-8.1c-2.5-3.8-5-7.3-6.7-9l0,0c-2.3-15.2-5.8-30.8-6.5-35.6c-0.8-5.4-2.9-11.2-2.9-19c0-2.4,0.2-5,0.7-7.9
			c0.4-2.1,4.7-7.1,6.9-16.4c1.1-4.9,2.5-12.6,2.5-15.2c0-0.6-0.1-0.9-0.2-0.9c0,0-0.1,0-0.1,0.1c-5.6,4.7-14.2,17-15.8,17
			c-3.7,0-13.3-15.6-15.2-15.6c-0.2,0-0.3,0.2-0.3,0.6c0,0.3,0,0.5,0,0.8c0,12.1,8.3,28,9,34.9c0.3,2.6,0.5,5.4,0.6,8.3
			c0,0.1,0,0.1,0,0.2c0,7.8-7.6,13.7-7.6,19.5c0,0.3,0,0.5,0.1,0.8c0.5,3.7,2.9,12.1,3,12.5c-0.1,0.3-0.2,0.5-0.2,0.8
			c-1,3.1-2.1,6.6-3.1,10.7l0,0c0,0-3.7,1.4-8.8,1.4c0,0,0.5,13.3,5.2,21.8l0,0c-0.2,2.7-0.3,5.6-0.3,8.6c0,7.3,0.5,15.5,1.9,24.5v0
			c-1.1-1.1-2.3-2.1-3.5-2.9c-1.1-0.7-2.5-1.4-3.4-1.4c-0.7,0-1.1,0.3-1.1,1.2c0,0.9,0.5,2.4,1.7,4.8c4.3,8.1,13.2,19.7,13.2,19.7
			l0,0c0,0.4-0.1,0.9-0.1,1.4c0,0.2,0,0.4,0,0.7c0,10.6,6.2,22.7,9.3,22.7c0.6,0,1-0.4,1.3-1.3c0.2-0.6,0.2-2,0.2-2.6
			c0-0.2,0-0.3,0-0.3v0c2,3.8,4.3,5.8,5.5,5.8C397.6,318.3,397.9,318,398,317.5L398,317.5L398,317.5c-0.1,0.5-0.3,0.7-0.7,0.7
			c-1.2,0-3.4-2-5.5-5.8v0c0,0,0,0.1,0,0.3c0,0.6,0,1.9-0.2,2.6c-0.3,0.9-0.8,1.3-1.3,1.3c-3.1,0-9.3-12.1-9.3-22.7
			c0-0.2,0-0.4,0-0.7c0-0.5,0-0.9,0.1-1.4l0,0c0,0-8.9-11.6-13.2-19.7c-1.2-2.3-1.7-3.9-1.7-4.8c0-0.9,0.5-1.2,1.1-1.2
			c0.9,0,2.3,0.7,3.4,1.4c1.2,0.8,2.4,1.8,3.5,2.9v0c-1.3-9.1-1.9-17.2-1.9-24.5c0-3,0.1-5.9,0.3-8.6l0,0
			c-4.7-8.4-5.2-21.8-5.2-21.8c5.1,0,8.8-1.4,8.8-1.4l0,0c1-4,2.1-7.6,3.1-10.7c0.1-0.3,0.2-0.5,0.2-0.8c-0.1-0.3-2.5-8.8-3-12.5
			c0-0.3-0.1-0.5-0.1-0.8c0-5.8,7.6-11.7,7.6-19.5c0-0.1,0-0.1,0-0.2c-0.1-2.9-0.3-5.7-0.6-8.3c-0.8-6.9-9-22.8-9-34.9
			c0-0.3,0-0.5,0-0.8c0-0.4,0.1-0.6,0.3-0.6c1.9,0,11.5,15.6,15.2,15.6c1.5,0,10.2-12.3,15.8-17c0,0,0.1-0.1,0.1-0.1
			c0.1,0,0.2,0.3,0.2,0.9c0,2.6-1.3,10.3-2.5,15.2c-2.2,9.3-6.6,14.3-6.9,16.4c-0.5,2.9-0.7,5.5-0.7,7.9c0,7.9,2.1,13.6,2.9,19
			c0.7,4.8,4.2,20.4,6.5,35.6l0,0c1.7,1.7,4.2,5.3,6.7,9c3.9,5.9,7.4,8.1,7.4,8.1c-5.5,12.3-11.8,15.6-11.8,15.6l0,0
			c-0.1,47.8-10.2,62.9-10.2,62.9l0,0c0.3,1.1,0.6,2.1,0.6,2.8C398,317.3,398,317.4,398,317.5L398,317.5z"/>
		<path style="clip-path:url(#SVGID_00000096743710062408460940000013427287644684788393_);fill:#939598;" d="M400.4,294.3
			c0-1.2-0.3-2.2-0.7-2.8c-0.5-0.6-1.1-0.9-1.9-0.9c-0.1,0-0.2,0-0.2,0c-1.5,0.1-2.6,1.4-2.6,3.3v0c0,0.2,0,0.4,0,0.6
			c0.2,1.9,1.3,3.6,2.8,3.6C399.9,298,400.4,295.4,400.4,294.3 M395.7,294.5c0-0.2,0-0.3,0-0.5c0-1.7,0.9-2.6,2-2.7
			c0.1,0,0.1,0,0.2,0c0.7,0,1.3,0.4,1.6,1.3c-0.3-0.4-0.8-0.5-1.3-0.5c-1.1,0.1-1.7,1.2-1.7,2.1c0,1.1,0.9,1.9,1.8,1.9
			c0.7,0,1.1-0.5,1.3-1c-0.1,0.4-0.2,0.8-0.4,1.2c-0.3,0.7-0.8,1.2-1.4,1.2C396.9,297.5,395.8,296.1,395.7,294.5 M384.2,297.2
			c0,0,0-1.5,0.5-3.3c0.5-1.8,1.4-3.9,3.2-5c1.1-0.7,2.7-1,4.2-1c2.2,0,4.2,0.5,4.2,0.5c0.2,0,0.4-0.1,0.4-0.2
			c0-0.2-0.1-0.4-0.2-0.4c0,0-2.1-0.5-4.4-0.5c-1.5,0-3.2,0.2-4.5,1.1c-4,2.6-4,8.9-4,8.9v0c0,0.2,0.1,0.3,0.3,0.3
			C384,297.5,384.2,297.4,384.2,297.2 M397.2,318.6c0.6,0,1-0.4,1.1-1c0-0.1,0-0.3,0-0.4c0-0.7-0.2-1.7-0.5-2.7
			c1-1.6,10.1-17.5,10.2-62.7c1.1-0.6,6.7-4.4,11.7-15.7c0.1-0.1,0-0.3-0.1-0.4c0,0-0.9-0.5-2.2-1.8c-1.4-1.3-3.2-3.3-5.1-6.2
			c-0.5-0.7-0.9-1.4-1.4-2.1c0,0,0,0,0,0c-2-2.9-3.8-5.5-5.2-6.9c-2.3-15.2-5.8-30.7-6.5-35.5c-0.8-5.5-2.9-11.2-2.9-19
			c0-2.4,0.2-5,0.7-7.9c0.3-1.9,4.7-7.1,6.9-16.4c1.1-4.9,2.5-12.6,2.5-15.3c0-0.3,0-0.5-0.1-0.7c0-0.2-0.1-0.4-0.5-0.5
			c-0.1,0-0.3,0.1-0.3,0.1c-2.8,2.4-6.4,6.7-9.4,10.3c-1.5,1.8-2.9,3.5-4,4.7c-1.1,1.2-2,2-2.1,1.9c-1.5,0.1-5-3.8-8.1-7.7
			c-1.3-1.7-2.6-3.3-3.7-4.7c0,0,0,0,0,0c-0.2-0.2-0.4-0.4-0.5-0.7c-1.3-1.5-2.1-2.5-2.9-2.6c-0.5,0-0.7,0.5-0.7,0.9
			c0,0.3,0,0.5,0,0.8c0,12.2,8.3,28.2,9,35c0.3,2.6,0.5,5.3,0.6,8.1c0,0.1,0,0.2,0,0.3c0,5.6-4.2,10.3-6.3,14.8c0,0,0,0,0,0
			c-0.7,1.5-1.3,3.1-1.3,4.6c0,0.3,0,0.6,0.1,0.8c0.5,3.5,2.7,11.4,3,12.4c-0.1,0.2-0.1,0.5-0.2,0.7c-1,3.1-2.1,6.6-3.1,10.5
			c-0.7,0.3-4.1,1.3-8.5,1.3c-0.1,0-0.2,0-0.2,0.1c-0.1,0.1-0.1,0.1-0.1,0.2v0c0,0,0.5,13.3,5.2,21.9c-0.2,2.7-0.3,5.5-0.3,8.5
			c0,7.1,0.5,15,1.7,23.7c-0.9-0.8-1.9-1.6-2.9-2.3c-1.1-0.8-2.5-1.5-3.6-1.5c-0.3,0-0.6,0.1-0.9,0.2c0,0,0,0,0,0c0,0,0,0,0,0
			c0,0-0.1,0.1-0.1,0.1c-0.3,0.3-0.4,0.7-0.4,1.2c0,1,0.5,2.6,1.8,4.9c4.1,7.7,12.3,18.6,13.1,19.7c0,0.4,0,0.8-0.1,1.2
			c0,0.2,0,0.4,0,0.7c0,5.3,1.6,11.1,3.5,15.5c2,4.4,4.2,7.5,6.1,7.6c0.7,0,1.3-0.6,1.6-1.5c0.1-0.5,0.2-1.1,0.2-1.7
			C394,316.9,395.9,318.6,397.2,318.6 M419.1,236c-2.7,6-5.6,9.8-7.8,12.1c-1.1,1.2-2.1,2-2.7,2.4c-0.2,0.2-0.4,0.3-0.5,0.4
			c0-2.3,0-4.7-0.1-7.1c3.5-2.7,7.4-8.7,8.4-10.2C417.6,235,418.6,235.7,419.1,236 M415.9,233.2c-0.3,0.5-1.3,2.1-2.7,3.9
			c-1.5,2.1-3.4,4.4-5.2,5.9c0-1.3-0.1-2.6-0.1-3.9c0-0.8-0.1-1.7-0.1-2.5c2.7-1.9,4.8-5.3,5.6-6.4
			C414.2,231.3,415.1,232.3,415.9,233.2 M411.8,228c0.4,0.6,0.7,1.1,1.1,1.6c-0.5,0.8-2.6,4.2-5.2,6.2c-0.1-2-0.3-4.1-0.6-6.3
			c1.8-1.1,3-2.5,3.5-3.2C411,226.8,411.4,227.4,411.8,228 M410.2,225.7c-0.4,0.5-1.5,2-3.2,3.1c-0.3-2.9-0.7-6-1.2-9
			C407.1,221.2,408.6,223.3,410.2,225.7 M376.7,190.2c0-0.3,0-0.5,0-0.8c0-1.2,0.3-2.4,0.9-3.6c0.5,1.2,1.4,3.6,1.8,5.1
			c0,0.2,0.2,0.3,0.4,0.2c0.2,0,0.3-0.2,0.2-0.4c-0.5-2-1.8-5.1-2-5.8c0.5-1,1.1-2,1.7-3.1c0.3,0.8,0.7,2.4,1,3.9
			c0,0.2,0.2,0.3,0.4,0.3c0.2,0,0.3-0.2,0.3-0.4c-0.4-2-1-4-1.2-4.5c1.4-2.3,2.8-4.7,3.6-7.3c-0.1,8.6-1.3,17.9-4.3,27.7
			C378.7,199.1,377.1,193.1,376.7,190.2 M368.4,223.2c-0.6-3.6-0.8-6.4-0.8-7.3c0.5,0,1,0,1.5-0.1c0.1,1.3,0.4,6.2,1.6,9.3
			c0.1,0.2,0.3,0.2,0.4,0.2c0.2-0.1,0.3-0.3,0.2-0.4c-1.2-2.9-1.5-7.8-1.5-9.1c0.7-0.1,1.4-0.1,2.1-0.2c0.1,0.7,0.4,2.2,0.7,3.4
			c0,0.2,0.2,0.3,0.4,0.2c0.2,0,0.3-0.2,0.2-0.4c-0.3-1.2-0.6-2.7-0.7-3.4c1.4-0.3,2.5-0.5,3.1-0.7c-1.5,6-2.7,13.1-3.3,21.4
			C370.3,232.1,369.1,227.2,368.4,223.2 M368.1,272c-1.2-2.3-1.7-3.8-1.7-4.6c0-0.2,0-0.4,0.1-0.5c1.2,1.6,6.5,8.7,11.3,15.6
			c0.1,0.1,0.3,0.2,0.5,0.1c0.1-0.1,0.2-0.3,0.1-0.5c-4.8-6.8-10.1-13.9-11.3-15.6c0.1,0,0.1,0,0.2,0c0.8,0,2.2,0.6,3.2,1.4
			c3.6,2.4,7,6.4,9.4,9.7c2,2.8,3.4,5.2,3.8,5.9c-1.4,1.6-2.5,4.1-2.9,7.7C378.7,288.4,371.7,278.9,368.1,272 M392.1,312.4
			C392.1,312.4,392.1,312.4,392.1,312.4c-0.4-0.7-0.7-1.4-1-2.1c-2-4.5-2.1-9.4-2.1-10.7c0-0.3,0-0.4,0-0.4c0-0.2-0.1-0.3-0.3-0.3
			c-0.2,0-0.3,0.1-0.3,0.3c0,0,0,0.1,0,0.4c0,1.4,0.2,6.3,2.2,11c0.3,0.7,0.7,1.4,1,2.1c0,0,0,0.1,0,0.2c0,0.6,0,1.9-0.2,2.4
			c-0.3,0.8-0.6,1.1-1,1.1c-1.2,0.1-3.6-2.9-5.5-7.2c-1.9-4.3-3.5-10-3.5-15.2c0-0.2,0-0.4,0-0.6c0.1-4.9,1.3-7.9,3-9.6c0,0,0,0,0,0
			c1.8-1.9,4.1-2.4,6.2-2.5c2.6,0,4.7,0.9,4.7,0.8c0.2,0.1,0.4,0,0.4-0.2c0.1-0.2,0-0.4-0.2-0.4c0,0-2.2-0.9-4.9-0.9
			c-2.1,0-4.5,0.5-6.4,2.4c-0.9-1.6-4.7-7.9-9.6-12.6c-1.3-9-1.8-17.1-1.8-24.4c0-19.3,3.8-32.8,6.9-42.3
			c3.6-10.9,4.9-21.4,4.9-30.8c0-1.1,0-2.1-0.1-3.2c0,0,0-0.1,0-0.1c0,0,0,0,0,0c-0.1-2.8-0.3-5.5-0.6-8c-0.8-7-9-22.9-9-34.9
			c0-0.3,0-0.5,0-0.8c0-0.1,0-0.2,0-0.2c0.2,0,1.3,1,2.4,2.3c0.1,0.2,0.3,0.4,0.4,0.5c0,0.1,0,0.1,0,0.2c0,1.2,0.4,5.6,4.2,19
			c0,0.2,0.2,0.3,0.4,0.2c0.2,0,0.3-0.2,0.2-0.4c-3.3-11.7-4-16.5-4.1-18.2c1.6,2,3.5,4.5,5.4,6.7c0.1,0.9,0.7,7.7,1.2,10.7
			c0,0.2,0.2,0.3,0.4,0.3c0.2,0,0.3-0.2,0.3-0.4c-0.4-2.4-0.9-7.5-1.1-9.7c2,2.2,3.8,4,5.3,4.3c0.1,1.5,0.4,9,0.4,14.5
			c0,2.1,0,3.9-0.2,5c0,0.2,0.1,0.3,0.3,0.4c0.2,0,0.3-0.1,0.4-0.3c0.1-1.2,0.2-3,0.2-5.1c0-5.6-0.4-13.1-0.4-14.6
			c0.6-0.3,1.3-1,2.2-2c0.9-1,2.1-2.4,3.3-3.9c-0.1,1.3-0.7,4.5-3.3,11.4c0,0,0,0.1,0,0.1c0,0.1,0.1,0.3,0.2,0.3
			c0.2,0.1,0.4,0,0.4-0.2c3-8,3.4-11.1,3.4-12.1c0-0.1,0-0.2,0-0.3c1.3-1.6,2.8-3.4,4.2-5c0,1.8-0.6,7.2-5.6,19.6c0,0,0,0.1,0,0.1
			c0,0.1,0.1,0.3,0.2,0.3c0.2,0.1,0.4,0,0.4-0.2c5.1-12.7,5.6-18.1,5.6-19.9c0-0.3,0-0.5,0-0.6c1.5-1.7,3-3.2,4.3-4.4
			c0,0.1,0,0.2,0,0.4c0,2.5-1.3,10.3-2.5,15.1c-2.2,9.2-6.5,14.1-6.9,16.4c-0.5,2.9-0.7,5.5-0.7,8c0,7.9,2.1,13.7,2.9,19.1
			c1.1,7.1,8.1,37.6,8.7,55.9c0.1,4.2,0.2,8.1,0.2,11.9c0,24.1-2.6,39.9-5.1,49.7c-1.3,4.9-2.5,8.3-3.5,10.5c-0.5,1.2-0.9,2-1.2,2.5
			c-1-3-2.6-6.4-2.6-6.4c-0.1-0.2-0.3-0.2-0.4-0.2c-0.2,0.1-0.2,0.3-0.2,0.4c0,0,0.8,1.8,1.7,3.9c0.8,2.1,1.7,4.6,1.7,5.8
			c0,0.1,0,0.2,0,0.3c-0.1,0.4-0.2,0.4-0.4,0.5C396.4,318,394.1,316.1,392.1,312.4"/>
		<path style="clip-path:url(#SVGID_00000096743710062408460940000013427287644684788393_);" d="M399.2,294c0-0.3,0-0.5-0.1-0.6
			c0,0.4-0.2,1.1-0.7,1.1c-0.4,0-0.8-0.5-0.8-1.1c0-0.2,0-0.3,0.1-0.5c-0.3,0.3-0.5,0.8-0.5,1.2c0,0.7,0.6,1.3,1.1,1.3
			C398.9,295.4,399.2,294.4,399.2,294"/>
		<path style="clip-path:url(#SVGID_00000096743710062408460940000013427287644684788393_);fill:#FFFFFF;" d="M269.4,166.7
			c0,0,18.1-1.2,18.1-19.8c0-10.6-7.5-19.5-15.9-19.5c-8.4,0-17.1,3.9-50.6,3.9s-42.2-3.9-50.6-3.9c-8.4,0-15.9,8.8-15.9,19.5
			c0,18.6,18.1,19.8,18.1,19.8l-50.8,88.8c-1.8,3.1-2.8,15.1,4.4,22.2c7.5,7.5,16.1,6.7,16.1,6.7s4.6,9.3,10.8,12.6
			c7.2,3.8,15.7,0.8,15.7,0.8s4,7.9,11.1,10.3c7.1,2.4,15.1-0.1,15.1-0.1s6.4,5.7,13.3,6.5c6.9,0.8,12.7-2.9,12.7-2.9
			s5.8,3.7,12.7,2.9c6.9-0.8,13.3-6.5,13.3-6.5s8,2.5,15.1,0.1c7.1-2.4,11.1-10.3,11.1-10.3s8.5,3,15.7-0.8
			c6.2-3.3,10.8-12.6,10.8-12.6s8.6,0.8,16.1-6.7c7.2-7.2,6.2-19.1,4.4-22.2L269.4,166.7z"/>
		
			<linearGradient id="SVGID_00000021806613191870487730000015999362581983275911_" gradientUnits="userSpaceOnUse" x1="-53.4125" y1="623.1533" x2="-52.5941" y2="623.1533" gradientTransform="matrix(247.117 0 0 -247.117 13319.1143 154212.7656)">
			<stop  offset="0" style="stop-color:#FFFFFF"/>
			<stop  offset="1" style="stop-color:#000000"/>
		</linearGradient>
		
			<path style="clip-path:url(#SVGID_00000096743710062408460940000013427287644684788393_);fill:url(#SVGID_00000021806613191870487730000015999362581983275911_);" d="
			M269.5,166.6L269.5,166.6c0,0,18.1-1.2,18.1-19.8c0-10.7-7.5-19.5-15.9-19.5c-8.4,0-17.1,3.9-50.7,3.9c-33.6,0-42.3-3.9-50.7-3.9
			c-8.4,0-15.9,8.9-15.9,19.5c0,18.7,18.1,19.8,18.1,19.8l-50.9,89c-0.7,1.2-1.3,3.9-1.3,7c0,4.8,1.4,10.9,5.7,15.2
			c6.2,6.2,13.2,6.7,15.4,6.7c0.5,0,0.7,0,0.7,0s4.6,9.3,10.9,12.6c2.8,1.5,5.8,1.9,8.5,1.9c4.1,0,7.3-1.1,7.3-1.1s4,7.9,11.1,10.3
			c2.3,0.8,4.7,1,6.9,1c4.6,0,8.2-1.2,8.2-1.2s6.4,5.7,13.3,6.5c0.7,0.1,1.3,0.1,2,0.1c6,0,10.8-3,10.8-3s4.7,3,10.8,3
			c0.6,0,1.3,0,2-0.1c6.9-0.8,13.3-6.5,13.3-6.5s3.7,1.2,8.2,1.2c2.2,0,4.6-0.3,6.9-1c7.1-2.4,11.1-10.3,11.1-10.3s3.2,1.1,7.3,1.1
			c2.6,0,5.7-0.5,8.5-1.9c6.2-3.3,10.9-12.6,10.9-12.6s0.3,0,0.7,0c2.2,0,9.2-0.5,15.4-6.7c4.3-4.3,5.7-10.4,5.7-15.2
			c0-3.2-0.6-5.8-1.3-7L269.5,166.6L269.5,166.6L269.5,166.6l50.9,89c0.7,1.2,1.3,3.9,1.3,7c0,4.8-1.4,10.9-5.7,15.2
			c-6.2,6.2-13.2,6.7-15.4,6.7c-0.5,0-0.7,0-0.7,0s-4.6,9.3-10.9,12.6c-2.8,1.5-5.8,1.9-8.5,1.9c-4.1,0-7.3-1.1-7.3-1.1
			s-4,7.9-11.1,10.3c-2.3,0.8-4.7,1-6.9,1c-4.6,0-8.2-1.2-8.2-1.2s-6.4,5.7-13.3,6.5c-0.7,0.1-1.3,0.1-2,0.1c-6,0-10.8-3-10.8-3
			s-4.7,3-10.8,3c-0.6,0-1.3,0-2-0.1c-6.9-0.8-13.3-6.5-13.3-6.5s-3.7,1.2-8.2,1.2c-2.2,0-4.6-0.3-6.9-1
			c-7.1-2.4-11.1-10.3-11.1-10.3s-3.2,1.1-7.3,1.1c-2.6,0-5.7-0.5-8.5-1.9c-6.2-3.3-10.9-12.6-10.9-12.6s-0.3,0-0.7,0
			c-2.2,0-9.2-0.5-15.4-6.7c-4.3-4.3-5.7-10.4-5.7-15.2c0-3.2,0.6-5.8,1.3-7l50.9-89c0,0-18.1-1.2-18.1-19.8
			c0-10.7,7.5-19.5,15.9-19.5c8.4,0,17.1,3.9,50.7,3.9c33.6,0,42.3-3.9,50.7-3.9c8.4,0,15.9,8.9,15.9,19.5
			C287.6,165.4,269.5,166.6,269.5,166.6L269.5,166.6z"/>
	</g>
	<g>
		<defs>
			<path id="SVGID_00000005225663172925649720000016694239131281179525_" d="M174.2,184.9l-41.8,73c-1.9,3.4-0.4,11.2,4.4,14.7
				c5.4,3.8,12.5,2,12.5,2s1.3,7.2,7,11.4c5.7,4.2,14.2,1.9,14.2,1.9s2.7,7.1,9.7,10.7c7,3.6,15.7,0.3,15.7,0.3s4.6,5.7,11.6,6.7
				c7.1,1,13.5-5.1,13.5-5.1s6.4,6.1,13.5,5.1c7.1-1,11.6-6.7,11.6-6.7s8.7,3.3,15.7-0.3c7-3.6,9.7-10.7,9.7-10.7s8.5,2.3,14.2-1.9
				c5.7-4.2,7-11.4,7-11.4s7.2,1.8,12.5-2c4.8-3.4,6.3-11.3,4.4-14.7l-41.8-73c-4.9-8.5-21.2-32.9-46.8-32.9
				C195.4,152,179.1,176.4,174.2,184.9"/>
		</defs>
		<clipPath id="SVGID_00000175296938084565550020000014419958129693297045_">
			<use xlink:href="#SVGID_00000005225663172925649720000016694239131281179525_"  style="overflow:visible;"/>
		</clipPath>
		
			<rect x="116" y="126.8" style="clip-path:url(#SVGID_00000175296938084565550020000014419958129693297045_);fill:#FFFFFF;" width="225" height="192.1"/>
	</g>
	<g>
		<defs>
			<rect id="SVGID_00000155828106982622930240000000965722477159579534_" width="442" height="442"/>
		</defs>
		<clipPath id="SVGID_00000009555206374462174790000015768781319692313490_">
			<use xlink:href="#SVGID_00000155828106982622930240000000965722477159579534_"  style="overflow:visible;"/>
		</clipPath>
		<g style="clip-path:url(#SVGID_00000009555206374462174790000015768781319692313490_);">
			<path class="st24" d="M309.7,257.6c-10.4-18.2-15.6-27.3-18.2-31.9c-1.3-2.3-2-3.4-2.3-4c-0.2-0.3-0.2-0.4-0.3-0.5c0,0,0,0,0-0.1
				c0,0,0,0,0,0l0,0l0,0c-0.1-0.1-1.3-2.3-20.8-36.4c-4.9-8.5-21.2-33-47-33c-25.8,0-42.1,24.5-47,33
				c-10.4,18.2-15.6,27.3-18.2,31.9c-2,3.5-2.5,4.3-2.6,4.5c0,0,0,0,0,0c0,0,0,0,0,0c0,0,0,0,0,0c0,0,0,0,0,0c0,0,0,0,0,0
				c0,0,0,0,0,0c0,0,0,0,0,0c0,0,0,0,0,0c-0.2,0.4-2.1,3.6-20.8,36.4c-0.6,1-0.9,2.4-0.9,3.9c0,3.8,1.8,8.7,5.4,11.2
				c2.8,2,6.1,2.5,8.6,2.5c1.8,0,3.2-0.2,3.8-0.4c0.3,1.5,1.9,7.5,7,11.2c2.8,2.1,6.2,2.6,9,2.6c2.5,0,4.5-0.4,5.2-0.6
				c0.6,1.4,3.5,7.4,9.7,10.6c2.6,1.3,5.3,1.7,7.8,1.7c3.8,0,7-1,7.9-1.3c0.9,1,5.2,5.7,11.7,6.6c0.5,0.1,1.1,0.1,1.6,0.1
				c5.8,0,10.8-4.1,11.9-5.1c1.1,1,6.1,5.1,11.9,5.1c0.5,0,1.1,0,1.6-0.1c6.5-0.9,10.8-5.6,11.7-6.6c0.9,0.3,4.1,1.3,7.9,1.3
				c2.5,0,5.2-0.4,7.8-1.7c6.3-3.2,9.1-9.2,9.7-10.6c0.7,0.2,2.7,0.6,5.2,0.6c2.8,0,6.2-0.5,9-2.6c5.1-3.7,6.7-9.7,7-11.2
				c0.6,0.1,2,0.4,3.8,0.4c2.5,0,5.8-0.5,8.6-2.5c3.6-2.6,5.4-7.4,5.4-11.2C310.6,260,310.3,258.6,309.7,257.6 M304.9,272.2
				c-2.7,1.9-5.8,2.4-8.2,2.4c-1.9,0-3.4-0.3-3.9-0.4L278.9,247c-0.1-0.2-0.3-0.2-0.5-0.2c-0.2,0.1-0.2,0.3-0.2,0.5l13.9,27.3
				c-0.1,0.4-0.4,2-1.3,3.9c-1,2.3-2.7,5.1-5.5,7.1c-2.6,1.9-5.9,2.4-8.6,2.4c-1.5,0-2.8-0.2-3.8-0.3c-0.6-0.1-1.1-0.2-1.3-0.3
				l-9.9-32c-0.1-0.2-0.3-0.3-0.4-0.2c-0.2,0.1-0.3,0.3-0.2,0.4l10,32.1c-0.2,0.4-0.8,1.9-2.1,3.8c-1.5,2.2-3.9,4.8-7.3,6.6
				c-2.4,1.2-5.1,1.7-7.5,1.7c-2.2,0-4.1-0.3-5.6-0.7c-1.1-0.2-1.8-0.5-2.1-0.6l-5.6-38.5c0-0.2-0.2-0.3-0.4-0.3
				c-0.2,0-0.3,0.2-0.3,0.4l5.6,38.6c-0.3,0.4-1.3,1.5-3,2.8c-2,1.5-4.8,3.2-8.3,3.6c-0.5,0.1-1,0.1-1.5,0.1c-3.1,0-6.1-1.3-8.2-2.6
				c-1.8-1.1-3-2.1-3.4-2.5v-73.2c0-0.2-0.2-0.4-0.4-0.4s-0.4,0.2-0.4,0.4v73.2c-0.3,0.3-1.6,1.4-3.4,2.5c-2.1,1.3-5.1,2.6-8.2,2.6
				c-0.5,0-1,0-1.5-0.1c-3.5-0.5-6.3-2.1-8.3-3.6c-1.7-1.3-2.7-2.5-3-2.8l5.6-38.6c0-0.2-0.1-0.4-0.3-0.4c-0.2,0-0.4,0.1-0.4,0.3
				l-5.6,38.5c-0.8,0.3-3.9,1.3-7.7,1.3c-2.4,0-5.1-0.4-7.5-1.7c-3.4-1.8-5.8-4.4-7.3-6.6c-1.3-1.9-2-3.4-2.1-3.8l10-32.1
				c0.1-0.2,0-0.4-0.2-0.4c-0.2-0.1-0.4,0-0.4,0.2l-9.9,32c-0.6,0.1-2.6,0.6-5.1,0.6c-2.7,0-6-0.5-8.6-2.4c-2.8-2-4.5-4.8-5.5-7.1
				c-0.9-2-1.2-3.5-1.3-3.9l13.9-27.3c0.1-0.2,0-0.4-0.2-0.5c-0.2-0.1-0.4,0-0.5,0.2l-13.9,27.2c-0.4,0.1-1.9,0.4-3.9,0.4
				c-2.4,0-5.6-0.5-8.2-2.4c-3.3-2.4-5.1-7-5.1-10.7c0-1.4,0.3-2.6,0.8-3.5c19.2-33.5,20.7-36.3,20.9-36.5c0,0,0,0,0,0
				c0,0,0,0,20.9-36.5c4.8-8.5,21.1-32.7,46.5-32.7c25.4,0,41.6,24.2,46.5,32.7l20.9,36.5v0v0c0,0,0,0,0,0.1l0,0
				c0.3,0.5,2.6,4.5,20.8,36.4c0.5,0.9,0.8,2.1,0.8,3.5C310,265.2,308.2,269.9,304.9,272.2 M169.4,154.5c1.4,0.8,3,1.2,4.5,1.2
				c2,0,4-0.7,5.6-1.9l-7.2,12.6c-0.1,0.2,0,0.4,0.1,0.4c0.1,0,0.1,0,0.2,0c0.1,0,0.2-0.1,0.3-0.2l8.7-15.2c0.1-0.1,0.2-0.2,0.3-0.4
				c0.8-1.4,1.2-3,1.2-4.5c0-3.1-1.6-6.2-4.6-7.9c-1.4-0.8-3-1.2-4.5-1.2c-3.1,0-6.2,1.6-7.9,4.6c-0.8,1.4-1.2,3-1.2,4.5
				C164.8,149.8,166.4,152.9,169.4,154.5 M166.6,142.5c1.5-2.7,4.3-4.2,7.2-4.2c1.4,0,2.8,0.4,4.1,1.1c2.7,1.5,4.2,4.3,4.2,7.2
				c0,1.4-0.4,2.8-1.1,4.1c-1.5,2.7-4.3,4.2-7.2,4.2c-1.4,0-2.8-0.4-4.1-1.1c-2.7-1.5-4.2-4.3-4.2-7.2
				C165.5,145.3,165.9,143.8,166.6,142.5 M260.5,151.6l8.7,15.2c0.1,0.1,0.2,0.2,0.3,0.2c0.1,0,0.1,0,0.2,0c0.2-0.1,0.2-0.3,0.1-0.4
				l-7.2-12.6c1.6,1.2,3.6,1.9,5.6,1.9c1.5,0,3.1-0.4,4.5-1.2c2.9-1.7,4.6-4.7,4.6-7.9c0-1.5-0.4-3.1-1.2-4.5
				c-1.7-2.9-4.7-4.6-7.9-4.6c-1.5,0-3.1,0.4-4.5,1.2c-2.9,1.7-4.6,4.7-4.6,7.9c0,1.5,0.4,3.1,1.2,4.5
				C260.4,151.3,260.5,151.4,260.5,151.6 M264,139.4c1.3-0.7,2.7-1.1,4.1-1.1c2.9,0,5.7,1.5,7.2,4.2c0.7,1.3,1.1,2.7,1.1,4.1
				c0,2.9-1.5,5.7-4.2,7.2l0,0c-1.3,0.7-2.7,1.1-4.1,1.1c-2.9,0-5.7-1.5-7.2-4.2c-0.8-1.3-1.1-2.7-1.1-4.1
				C259.8,143.8,261.3,141,264,139.4"/>
			<path class="st24" d="M232.9,306.3L232.9,306.3c-5.5,0-10.2-3.5-11.9-4.9c-1.7,1.4-6.4,4.9-11.9,4.9c-0.5,0-1.1,0-1.7-0.1
				c-6.2-0.9-10.5-5.2-11.8-6.5c-1.2,0.4-4.2,1.2-7.8,1.2c-3,0-5.7-0.6-8-1.8c-5.9-3.1-8.8-8.4-9.8-10.5c-0.9,0.2-2.7,0.5-4.9,0.5
				c-3.7,0-6.9-0.9-9.3-2.7c-4.8-3.5-6.5-8.9-7.1-11.1c-0.8,0.1-2,0.3-3.5,0.3c-3.5,0-6.5-0.9-8.9-2.6c-3.8-2.8-5.6-7.8-5.6-11.6
				c0-1.6,0.3-3.1,0.9-4.1c17.3-30.2,20.2-35.3,20.7-36.2l0,0l0.1-0.1V221l0.2-0.2l20.8-36.3c4.5-7.8,21.1-33.2,47.4-33.2
				c26.3,0,43,25.4,47.4,33.2l41.7,72.9c0.6,1.1,0.9,2.5,0.9,4.1c0,3.8-1.7,8.9-5.6,11.6c-2.4,1.7-5.5,2.6-8.9,2.6
				c-1.5,0-2.7-0.2-3.5-0.3c-0.5,2.2-2.3,7.6-7.1,11.1c-2.4,1.8-5.5,2.7-9.3,2.7c-2.2,0-4-0.3-4.9-0.5c-0.9,2.1-3.9,7.4-9.8,10.5
				c-2.3,1.2-5,1.8-8,1.8c-3.5,0-6.6-0.8-7.8-1.2c-1.4,1.6-5.6,5.7-11.8,6.5C234,306.3,233.4,306.3,232.9,306.3z M221.8,300
				c0.6,0.5,1.7,1.4,3.1,2.3c1.9,1.1,4.8,2.5,7.9,2.5c0.5,0,1,0,1.5-0.1c3.5-0.5,6.3-2.2,8.1-3.5c1.4-1.1,2.4-2.1,2.8-2.6l-5.5-38.4
				c-0.1-0.5,0.3-0.9,0.7-0.9l0.1,0c0.4,0,0.8,0.3,0.8,0.7l5.5,38.2c0.4,0.1,1,0.3,1.8,0.5c1.9,0.4,3.7,0.7,5.5,0.7
				c2.7,0,5.2-0.5,7.3-1.6c3.4-1.8,5.8-4.5,7.1-6.4c1.1-1.6,1.8-3,2-3.6l-9.9-31.9c-0.1-0.2,0-0.4,0.1-0.6c0.1-0.2,0.3-0.3,0.5-0.4
				c0.4-0.1,0.9,0.1,1,0.6l9.9,31.7c0.3,0.1,0.6,0.1,1.1,0.2c1.2,0.2,2.5,0.3,3.7,0.3c2.3,0,5.6-0.4,8.3-2.4c2.8-2,4.5-4.9,5.4-6.9
				c0.8-1.7,1.1-3.1,1.2-3.7l-13.9-27.1c-0.1-0.2-0.1-0.4,0-0.6c0.1-0.2,0.2-0.4,0.4-0.5c0.4-0.2,0.9,0,1.1,0.4l13.8,27
				c0.6,0.1,1.9,0.3,3.5,0.3c2.2,0,5.3-0.4,8-2.3c3.2-2.3,4.9-6.9,4.9-10.3c0-1.3-0.2-2.5-0.7-3.3l-41.8-73
				c-4.3-7.6-20.5-32.5-46-32.5c-25.6,0-41.8,24.8-46.1,32.5l-20.5,35.9c-0.4,0.6-0.4,0.6-0.4,0.6c0,0.1-0.4,0.8-2.9,5.1l-17.9,31.4
				c-0.5,0.8-0.7,2-0.7,3.3c0,3.4,1.7,8,4.9,10.3c2.6,1.9,5.8,2.3,8,2.3c1.7,0,3-0.2,3.5-0.3l13.8-27c0.2-0.4,0.7-0.6,1.1-0.4
				c0.4,0.2,0.6,0.7,0.4,1.1l-13.9,27.1c0.3,1.2,0.7,2.5,1.2,3.7c0.9,2,2.6,4.9,5.4,6.9c2.7,1.9,6,2.4,8.3,2.4
				c2.1,0,3.9-0.3,4.8-0.5l9.9-31.8c0.1-0.4,0.6-0.7,1-0.5c0.2,0.1,0.4,0.2,0.5,0.4c0.1,0.2,0.1,0.4,0.1,0.6l-9.9,31.9
				c0.3,0.7,1,2,2,3.6c1.4,2,3.7,4.7,7.1,6.4c2.1,1.1,4.5,1.6,7.3,1.6c3.3,0,6.2-0.8,7.3-1.1l5.5-38.2c0.1-0.4,0.4-0.7,0.8-0.7
				l0.1,0c0.2,0,0.4,0.1,0.6,0.3c0.1,0.2,0.2,0.4,0.2,0.6l-5.5,38.4c0.4,0.5,1.4,1.5,2.8,2.6c1.8,1.4,4.6,3.1,8.1,3.5
				c0.5,0.1,1,0.1,1.4,0.1c3.1,0,6.1-1.4,7.9-2.5c1.6-0.9,2.7-1.9,3.1-2.3v-72.9c0-0.5,0.4-0.8,0.8-0.8c0.5,0,0.8,0.4,0.8,0.8V300z
				 M269.5,167.4c-0.3,0-0.6-0.2-0.7-0.4l-8.8-15.3c-0.1-0.1-0.1-0.2-0.2-0.3c-0.8-1.4-1.3-3.1-1.3-4.7c0-3.4,1.8-6.6,4.8-8.3
				c1.4-0.8,3.1-1.3,4.7-1.3c3.4,0,6.6,1.8,8.3,4.8c0.8,1.4,1.3,3.1,1.3,4.7c0,3.4-1.8,6.6-4.8,8.3c-2.7,1.5-6.1,1.6-8.9,0.3l6.3,11
				c0.1,0.2,0.1,0.4,0.1,0.6c-0.1,0.2-0.2,0.4-0.4,0.5C269.8,167.3,269.7,167.4,269.5,167.4z M268.1,138.8c-1.4,0-2.7,0.4-3.9,1
				c-2.4,1.4-4,4-4,6.8c0,1.4,0.4,2.7,1,3.9c1.4,2.4,4,4,6.8,4c1.4,0,2.7-0.4,3.9-1l0.2-0.1c2.3-1.4,3.8-4,3.8-6.7
				c0-1.4-0.4-2.7-1-3.9C273.6,140.3,270.9,138.8,268.1,138.8L268.1,138.8z M172.5,167.4c-0.1,0-0.3,0-0.4-0.1
				c-0.2-0.1-0.3-0.3-0.4-0.5c-0.1-0.2,0-0.4,0.1-0.6l6.3-11c-2.8,1.4-6.2,1.3-8.9-0.3c-3-1.7-4.8-4.9-4.8-8.3
				c0-1.7,0.4-3.3,1.3-4.7c1.7-3,4.9-4.8,8.3-4.8c1.6,0,3.3,0.4,4.7,1.3c3,1.7,4.8,4.9,4.8,8.3c0,1.7-0.4,3.3-1.3,4.7
				c-0.1,0.1-0.1,0.2-0.2,0.3l-0.1,0.1l-8.7,15.2C173,167.2,172.8,167.4,172.5,167.4z M173.9,138.8c-2.8,0-5.4,1.5-6.8,4
				c-0.7,1.2-1,2.5-1,3.9c0,2.8,1.5,5.4,4,6.8c1.2,0.7,2.5,1,3.9,1c2.8,0,5.4-1.5,6.8-4c0.7-1.2,1-2.5,1-3.9c0-2.8-1.5-5.4-4-6.8
				C176.6,139.2,175.2,138.8,173.9,138.8L173.9,138.8z"/>
		</g>
		<g style="clip-path:url(#SVGID_00000009555206374462174790000015768781319692313490_);">
			<path class="st24" d="M321.2,255.1c-25.5-44.5-38.2-66.7-44.5-77.9l-5.7-9.9c1.8-0.3,4.9-1,8-2.9c4.3-2.5,9.5-7.6,9.5-17.7
				c0-11.1-7.7-20.4-16.8-20.4c-2.9,0-5.9,0.5-9.6,1c-7.5,1.1-18.8,2.9-41.1,2.9c-22.3,0-33.6-1.7-41.1-2.9c-3.8-0.6-6.7-1-9.6-1
				c-9.1,0-16.8,9.4-16.8,20.4c0,10.1,5.2,15.2,9.5,17.7c3.1,1.8,6.3,2.6,8,2.9l-0.5,0.8l-49.8,87c-0.9,1.5-1.4,4.4-1.4,7.5
				c0,3.7,0.8,10.7,6,15.9c6.5,6.5,13.9,7,16,7c0.1,0,0.1,0,0.2,0c1.2,2.2,5.4,9.5,11,12.4c2.6,1.4,5.6,2.1,8.9,2.1
				c3.1,0,5.7-0.6,6.8-0.9c1.3,2.3,5.2,8,11.3,10.1c2.1,0.7,4.6,1.1,7.2,1.1c3.7,0,6.8-0.7,8-1.1c1.6,1.3,7.2,5.7,13.5,6.4
				c0.7,0.1,1.4,0.1,2.1,0.1c5.1,0,9.3-2,10.8-2.9c1.5,0.9,5.7,2.9,10.8,2.9c0.7,0,1.4,0,2.1-0.1c6.2-0.7,11.9-5.1,13.5-6.4
				c1.2,0.3,4.3,1.1,8,1.1c2.6,0,5-0.4,7.2-1.1c6.1-2.1,9.9-7.8,11.3-10.1c1.2,0.3,3.8,0.9,6.8,0.9c3.3,0,6.3-0.7,8.9-2.1
				c5.5-2.9,9.6-9.9,11-12.4c0.1,0,0.1,0,0.2,0c2.1,0,9.5-0.5,16-7c5.2-5.2,6-12.2,6-15.9C322.6,259.5,322.1,256.6,321.2,255.1
				 M315.8,277.6c-6.1,6.1-13,6.6-15.2,6.6c-0.5,0-0.7,0-0.7,0c-0.1,0-0.3,0.1-0.3,0.2c0,0-1.1,2.3-3.1,5c-1.9,2.7-4.6,5.8-7.7,7.4
				c-2.8,1.5-5.7,1.9-8.3,1.9c-2,0-3.8-0.3-5.1-0.5c-1.3-0.3-2.1-0.5-2.1-0.5c-0.2-0.1-0.3,0-0.4,0.2c0,0-1,1.9-2.9,4.2
				c-1.9,2.3-4.6,4.8-8.1,6c-2.3,0.8-4.6,1-6.8,1c-4.5,0-8.1-1.1-8.1-1.1c-0.1,0-0.2,0-0.3,0.1c0,0-1.6,1.4-4,2.9
				c-2.4,1.5-5.7,3.1-9.1,3.5c-0.7,0.1-1.3,0.1-1.9,0.1c-3,0-5.6-0.7-7.5-1.5c-1.9-0.7-3.1-1.5-3.1-1.5v0c-0.1-0.1-0.2-0.1-0.4,0
				c0,0-1.2,0.7-3.1,1.5c-1.9,0.7-4.6,1.5-7.5,1.5c-0.6,0-1.3,0-1.9-0.1c-6.8-0.8-13.1-6.4-13.2-6.4c-0.1-0.1-0.2-0.1-0.3-0.1
				c0,0-3.6,1.1-8.1,1.1c-2.2,0-4.5-0.3-6.8-1c-3.5-1.2-6.2-3.7-8.1-6c-1.9-2.2-2.9-4.2-2.9-4.2c-0.1-0.1-0.2-0.2-0.4-0.2
				c0,0-3.1,1.1-7.2,1.1c-2.6,0-5.6-0.4-8.3-1.9c-3-1.6-5.7-4.7-7.7-7.4c-1.9-2.7-3.1-5-3.1-5c-0.1-0.1-0.2-0.2-0.3-0.2
				c0,0-0.2,0-0.7,0c-2.2,0-9-0.5-15.2-6.6c-4.3-4.2-5.6-10.2-5.6-15c0-3.1,0.6-5.7,1.2-6.9l50.9-89c0.1-0.1,0.1-0.2,0-0.3
				c-0.1-0.1-0.2-0.2-0.3-0.2c0,0-4.5-0.3-8.9-2.9c-4.5-2.6-8.9-7.4-8.9-16.6c0-5.3,1.8-10.1,4.7-13.6c2.9-3.5,6.8-5.6,10.9-5.6
				c8.3,0,17.1,3.9,50.7,3.9c33.6,0,42.4-3.9,50.7-3.9c4.1,0,8,2.2,10.9,5.6c2.9,3.5,4.7,8.3,4.7,13.6c0,9.2-4.4,14-8.9,16.6
				c-2.2,1.3-4.5,2-6.1,2.4c-1.7,0.4-2.8,0.5-2.8,0.5c-0.1,0-0.2,0.1-0.3,0.2c-0.1,0.1-0.1,0.2,0,0.3l50.9,89
				c0.7,1.1,1.3,3.7,1.2,6.9C321.4,267.4,320,273.4,315.8,277.6"/>
			<path class="st24" d="M231.8,316.2L231.8,316.2c-5,0-9.1-1.9-10.8-2.8c-1.7,0.9-5.8,2.8-10.8,2.8c-0.7,0-1.4,0-2.1-0.1
				c-6.1-0.7-11.7-4.8-13.5-6.3c-1.3,0.3-4.3,1-7.9,1c-2.7,0-5.1-0.4-7.3-1.1c-6-2-9.8-7.4-11.4-10c-1.4,0.4-3.8,0.8-6.6,0.8
				c-3.4,0-6.5-0.7-9.1-2.1c-5.5-2.9-9.7-9.9-11-12.4c-2.3,0-9.7-0.6-16.3-7.1c-5.3-5.3-6.1-12.4-6.1-16.2c0-3.2,0.6-6.1,1.5-7.7
				l49.9-87.2c-1.8-0.4-4.7-1.1-7.5-2.8c-4.5-2.6-9.8-7.8-9.7-18.1c0-11.3,7.9-20.9,17.3-20.9c2.9,0,5.9,0.5,9.7,1
				c7.5,1.1,18.8,2.9,41,2.9c22.3,0,33.5-1.7,41-2.9c3.8-0.6,6.7-1,9.7-1c9.4,0,17.3,9.6,17.3,20.9c0,10.3-5.3,15.5-9.7,18.1
				c-2.9,1.7-5.7,2.4-7.5,2.8l5.3,9.4c6.4,11.1,19.1,33.4,44.5,77.9c0.9,1.6,1.5,4.6,1.5,7.7c0,3.8-0.8,10.9-6.1,16.2
				c-6.5,6.5-14,7.1-16.3,7.1c-1.6,3-5.6,9.5-11,12.4c-2.7,1.4-5.7,2.1-9.1,2.1c-2.8,0-5.2-0.5-6.6-0.8c-1.5,2.5-5.4,7.9-11.3,10
				c-2.2,0.7-4.7,1.1-7.3,1.1c-3.6,0-6.6-0.7-7.9-1c-1.8,1.5-7.4,5.6-13.5,6.3C233.2,316.1,232.5,316.2,231.8,316.2z M194.8,308.7
				l0.2,0.2c1.6,1.3,7.1,5.6,13.2,6.3c0.7,0.1,1.3,0.1,2,0.1c5,0,9-2,10.6-2.8l0.2-0.1l0.2,0.1c1.5,0.8,5.6,2.8,10.6,2.8
				c0.7,0,1.3,0,2-0.1c6-0.7,11.6-5,13.2-6.3l0.2-0.2l0.2,0.1c1.1,0.3,4.2,1,7.9,1c2.6,0,4.9-0.4,7-1.1c5.9-2,9.7-7.6,11-9.9
				l0.2-0.3l0.4,0.1c1.2,0.3,3.7,0.9,6.7,0.9c3.2,0,6.2-0.7,8.7-2c5.5-2.9,9.6-10.1,10.8-12.3l0.1-0.3l0.3,0c0,0,0.1,0,0.1,0
				c2.1,0,9.3-0.5,15.7-6.9c5.1-5.1,5.8-11.9,5.8-15.6c0-3-0.5-5.8-1.4-7.3c-25.5-44.5-38.2-66.7-44.5-77.9l-6-10.5l0.7-0.1
				c1.6-0.3,4.7-1,7.9-2.8c4.2-2.4,9.3-7.4,9.3-17.3c0-10.8-7.5-19.9-16.4-20c-2.9,0-5.8,0.5-9.5,1c-7.5,1.1-18.8,2.9-41.2,2.9
				c-22.3,0-33.7-1.7-41.2-2.9c-3.7-0.6-6.7-1-9.5-1c-8.9,0-16.3,9.2-16.4,20c0,9.9,5,14.8,9.3,17.3c3.1,1.8,6.3,2.5,7.9,2.8
				l0.7,0.1l-0.8,1.4l-49.8,87c-0.8,1.5-1.3,4.2-1.4,7.3c0,3.6,0.8,10.5,5.8,15.6c6.4,6.4,13.7,6.8,15.7,6.9c0,0,0.1,0,0.1,0l0.3,0
				l0.1,0.3c1.2,2.1,5.3,9.4,10.8,12.3c2.5,1.3,5.4,2,8.7,2c3,0,5.5-0.6,6.7-0.9l0.4-0.1l0.2,0.3c1.3,2.3,5.1,7.8,11,9.9
				c2.1,0.7,4.5,1.1,7,1.1c3.7,0,6.7-0.7,7.9-1L194.8,308.7z M231.8,314.9c-2.5,0-5.1-0.5-7.7-1.5c-0.9-0.3-1.7-0.7-2.4-1.1v0.1
				l-0.7-0.4c-0.3,0.2-1.4,0.8-3.1,1.5c-2.6,1-5.2,1.5-7.7,1.5c-0.7,0-1.4,0-2-0.1c-6-0.7-11.6-5-13.3-6.4h0l-0.1-0.1
				c-0.5,0.2-4,1.1-8.2,1.1c-2.5,0-4.9-0.4-6.9-1c-3.7-1.3-6.6-4-8.3-6.1c-1.5-1.8-2.4-3.4-2.8-4.1l0-0.1c-0.6,0.2-3.5,1.1-7.2,1.1
				c-3.2,0-6.1-0.7-8.6-2c-3.3-1.7-6.1-5.1-7.8-7.6c-1.6-2.2-2.6-4.2-3-5l0,0c-0.1,0-0.3,0-0.6,0c-2,0-9.2-0.5-15.5-6.8
				c-5.2-5.2-5.7-12.5-5.7-15.3c0-3.3,0.7-6,1.3-7.1l50.8-88.8c-1-0.1-5-0.6-8.9-2.9c-6-3.5-9.1-9.3-9.1-17c0-5.2,1.7-10.1,4.8-13.9
				c3-3.7,7.1-5.8,11.2-5.8c2.8,0,5.6,0.4,9.4,1c7.5,1.1,18.9,2.9,41.3,2.9c22.4,0,33.7-1.7,41.3-2.9c3.8-0.6,6.6-1,9.4-1
				c4.1,0,8.2,2.1,11.3,5.8c3.1,3.8,4.8,8.7,4.8,13.9c0,7.8-3.1,13.5-9.1,17c-2.4,1.4-4.7,2.1-6.3,2.5c-1.2,0.3-2.1,0.4-2.6,0.5l0,0
				l50.8,88.8c0.7,1.1,1.3,3.8,1.3,7.1c0,2.9-0.6,10.2-5.7,15.3c-6.3,6.3-13.5,6.8-15.5,6.8c-0.3,0-0.5,0-0.6,0
				c-0.2,0.4-1.3,2.5-3,5c-1.8,2.5-4.6,5.9-7.8,7.6c-2.5,1.3-5.4,2-8.6,2c-1.7,0-3.4-0.2-5.2-0.6c-0.7-0.2-1.4-0.3-2-0.5
				c-0.2,0.5-1.2,2.2-2.9,4.2c-1.7,2.1-4.6,4.9-8.3,6.1c-2.1,0.7-4.4,1-6.9,1c-3.8,0-7-0.8-8.2-1.1c-0.5,0.5-2.1,1.7-4,2.9
				c-2.3,1.4-5.7,3.2-9.3,3.6C233.1,314.9,232.4,314.9,231.8,314.9z M221.3,311L221.3,311l0.2,0.1c0.9,0.5,1.9,1,3,1.4
				c2.5,1,5,1.5,7.3,1.5c0.6,0,1.2,0,1.9-0.1c3.4-0.4,6.8-2.1,8.9-3.4c2.1-1.3,3.6-2.5,3.9-2.8v0l0.1-0.1c0.2-0.2,0.4-0.2,0.7-0.2
				l0.1,0c0.9,0.3,4.1,1.1,7.9,1.1c2.4,0,4.7-0.3,6.6-1c3.5-1.2,6.2-3.8,7.9-5.8c1.8-2.2,2.8-4.1,2.8-4.1c0.2-0.3,0.5-0.5,0.9-0.4
				l0.1,0c0.6,0.2,1.3,0.4,2,0.5c1.7,0.4,3.3,0.5,5,0.5c3,0,5.8-0.6,8.1-1.9c3.1-1.6,5.8-4.9,7.5-7.3c1.7-2.4,2.8-4.5,3-4.9l0,0
				c0.1-0.3,0.4-0.4,0.7-0.4c0.1,0,0.4,0,0.7,0c2,0,8.8-0.5,14.8-6.5c4.9-4.9,5.5-11.9,5.5-14.7c0-3.1-0.6-5.6-1.2-6.6l-50.9-89
				c-0.1-0.2-0.1-0.5,0-0.8c0.1-0.2,0.2-0.3,0.4-0.4l0,0l0.3,0c0.4,0,1.3-0.1,2.7-0.5c1.5-0.4,3.7-1,6-2.4c5.7-3.3,8.6-8.8,8.7-16.2
				c0-4.9-1.6-9.6-4.6-13.2c-2.9-3.5-6.7-5.5-10.5-5.5c-2.8,0-5.5,0.4-9.3,1c-7.6,1.1-19,2.9-41.4,2.9c-22.4,0-33.8-1.7-41.4-2.9
				c-3.8-0.6-6.6-1-9.3-1c-3.8,0-7.7,2-10.5,5.5c-3,3.6-4.6,8.3-4.6,13.2c0,7.4,2.9,12.9,8.7,16.2c4.3,2.5,8.7,2.8,8.7,2.8
				c0.3,0,0.5,0.2,0.7,0.4c0.1,0.2,0.1,0.5,0,0.8l-50.9,89c-0.6,1-1.2,3.5-1.2,6.6c0,2.8,0.5,9.8,5.5,14.7c6,6,12.9,6.5,14.8,6.5
				c0.4,0,0.6,0,0.7,0c0.3,0,0.6,0.1,0.7,0.3l0,0l0.1,0.1c0.3,0.6,1.4,2.6,3,4.9c1.7,2.4,4.4,5.7,7.5,7.3c2.3,1.2,5.1,1.9,8.1,1.9
				c3.8,0,6.9-1,7-1.1c0.3-0.1,0.7,0,0.9,0.2l0,0l0.1,0.2c0.3,0.6,1.3,2.2,2.8,4.1c1.7,2,4.4,4.6,7.9,5.8c2,0.7,4.2,1,6.6,1
				c4.2,0,7.6-1,8-1.1c0.2-0.1,0.4,0,0.6,0h0l0.2,0.2c1.5,1.3,7,5.6,12.8,6.3c0.6,0.1,1.2,0.1,1.9,0.1c3,0,5.7-0.8,7.4-1.5
				c1.7-0.7,2.8-1.3,3-1.4l0,0c0,0,0,0,0,0l0.1-0.1C220.9,310.9,221.1,310.9,221.3,311z"/>
		</g>
	</g>
</g>
</svg>
